<svg width="12" height="13" viewBox="0 0 12 13" fill="none" xmlns="http://www.w3.org/2000/svg">
<g clip-path="url(#clip0_1_486)">
<path d="M9.25343 12.5C7.08593 12.5 4.91811 12.5 2.75061 12.5C2.72093 12.4928 2.69124 12.4819 2.66124 12.4788C1.19374 12.3203 0.0259269 11.0494 0.0174894 9.56906C0.0062394 7.52313 0.00811409 5.47688 0.0171766 3.43062C0.0228016 2.19 0.858427 1.05531 2.03718 0.66625C2.26811 0.59 2.51249 0.554375 2.75061 0.5C4.91811 0.5 7.08593 0.5 9.25343 0.5C9.27936 0.506875 9.30499 0.517188 9.33155 0.52C10.5528 0.662188 11.5475 1.50875 11.8772 2.69375C11.9272 2.87313 11.9534 3.05906 11.9906 3.24219C11.9906 5.41406 11.9906 7.58594 11.9906 9.75781C11.9834 9.78781 11.9728 9.8175 11.9694 9.84813C11.8353 11.0419 10.9762 12.0594 9.82311 12.3809C9.63655 12.4328 9.44343 12.4609 9.25343 12.5ZM10.9903 6.49813C10.9903 5.52563 10.9909 4.55281 10.9897 3.58031C10.9894 3.46344 10.99 3.34469 10.9719 3.23C10.8072 2.19219 10.0019 1.50344 8.95061 1.50281C6.98562 1.50125 5.02093 1.50219 3.05593 1.50313C2.95093 1.50313 2.84436 1.50344 2.74124 1.51969C1.70811 1.68156 1.0153 2.49188 1.01437 3.54313C1.01249 5.51562 1.01374 7.48844 1.01468 9.46094C1.01468 9.56625 1.01593 9.67281 1.0328 9.77625C1.19874 10.8063 2.00468 11.4966 3.0478 11.4978C5.01655 11.5 6.9853 11.4994 8.95405 11.4966C9.10499 11.4963 9.25936 11.4862 9.40655 11.4544C10.3562 11.2484 10.9872 10.4534 10.99 9.46313C10.9922 8.47469 10.9903 7.48625 10.9903 6.49813Z" fill="white"/>
<path d="M5.50499 6.99833C5.35687 6.99833 5.22874 6.99833 5.10062 6.99833C4.5628 6.99801 4.02499 7.00051 3.48749 6.99551C3.26843 6.99364 3.09124 6.84895 3.02999 6.64208C2.96999 6.43958 3.03249 6.21583 3.21218 6.10489C3.30905 6.04489 3.43593 6.00833 3.54999 6.00676C4.14999 5.99739 4.75031 6.00239 5.35031 6.00239C5.39624 6.00239 5.44218 6.00239 5.5053 6.00239C5.5053 5.94551 5.5053 5.90051 5.5053 5.8552C5.5053 5.23833 5.50218 4.62145 5.50687 4.00458C5.50968 3.64739 5.84312 3.41333 6.16999 3.52958C6.37624 3.60301 6.49843 3.7852 6.49874 4.03145C6.50031 4.63676 6.49937 5.24176 6.49937 5.84708C6.49937 5.89301 6.49937 5.93926 6.49937 6.0027C6.55593 6.0027 6.60093 6.0027 6.64593 6.0027C7.26155 6.0027 7.87749 5.99958 8.49312 6.00426C8.84468 6.00708 9.07749 6.33176 8.97062 6.65739C8.90093 6.8702 8.71593 6.99739 8.46624 6.99801C7.86218 6.99958 7.25812 6.99864 6.65405 6.99864C6.60812 6.99864 6.56218 6.99864 6.49905 6.99864C6.49905 7.05551 6.49905 7.10083 6.49905 7.14614C6.49905 7.76301 6.50249 8.37989 6.49718 8.99676C6.49437 9.34926 6.16999 9.58176 5.84468 9.47489C5.63593 9.40614 5.50624 9.22208 5.5053 8.98114C5.50343 8.37208 5.50468 7.76301 5.50468 7.15395C5.50499 7.10739 5.50499 7.06145 5.50499 6.99833Z" fill="white"/>
</g>
<defs>
<clipPath id="clip0_1_486">
<rect width="12" height="12" fill="white" transform="translate(0 0.5)"/>
</clipPath>
</defs>
</svg>
