<svg width="6" height="11" viewBox="0 0 6 11" fill="none" xmlns="http://www.w3.org/2000/svg">
<path d="M0.75117 0.488306C0.574587 0.534445 0.416088 0.608 0.29831 0.756695C0.100921 1.00583 0.0967815 1.36764 0.295726 1.6172C0.334226 1.6655 0.376782 1.71092 0.420504 1.75464C1.63789 2.97253 2.85562 4.19006 4.07362 5.40731C4.10109 5.43475 4.13228 5.45847 4.19631 5.51378C4.14737 5.54256 4.10748 5.55633 4.08059 5.58317C2.85264 6.80895 1.62636 8.03636 0.398448 9.26217C0.181976 9.47828 0.0913657 9.72564 0.184143 10.0261C0.32206 10.4726 0.891922 10.6539 1.26203 10.3687C1.30326 10.3369 1.34273 10.3023 1.37953 10.2655C2.79123 8.85453 4.2027 7.44333 5.6137 6.03161C5.87739 5.76778 5.93142 5.43989 5.75612 5.14231C5.71375 5.07042 5.65456 5.0065 5.59506 4.94695C4.22151 3.57158 2.84606 2.19814 1.47353 0.821778C1.32142 0.66925 1.16448 0.533167 0.946866 0.48825C0.881644 0.488305 0.816392 0.488306 0.75117 0.488306Z" fill="white"/>
</svg>
