<svg width="13" height="13" viewBox="0 0 13 13" fill="none" xmlns="http://www.w3.org/2000/svg">
<path d="M-0.012778 6.1248C0.0200406 5.87818 0.0445754 5.63029 0.0872714 5.38558C0.350776 3.87688 1.06705 2.61862 2.2122 1.60762C3.18433 0.749237 4.31832 0.221271 5.60494 0.0584519C7.62982 -0.197725 9.41573 0.353183 10.9247 1.73411C11.973 2.69318 12.6348 3.88262 12.8942 5.28139C13.2157 7.01473 12.877 8.62252 11.9205 10.1013C11.7592 10.3501 11.4635 10.4186 11.2211 10.2711C10.9818 10.1258 10.9018 9.82438 11.0573 9.57235C11.3297 9.13105 11.577 8.6786 11.7271 8.18058C12.2512 6.44438 12.0173 4.81843 10.9716 3.33171C10.205 2.24201 9.16592 1.51617 7.8707 1.18958C6.29637 0.79257 4.80837 1.03122 3.46154 1.93804C2.08698 2.86365 1.2595 4.16237 1.05494 5.8186C0.848791 7.48534 1.32004 8.95389 2.44703 10.2013C3.31975 11.1674 4.4085 11.7502 5.69543 11.9404C6.90685 12.1195 8.05646 11.9101 9.13533 11.3254C9.20989 11.285 9.28286 11.2423 9.35837 11.204C9.6222 11.0709 9.91534 11.1547 10.0498 11.4003C10.1833 11.6441 10.1132 11.948 9.85575 12.0809C9.45077 12.2899 9.03943 12.4926 8.61502 12.6579C8.09215 12.8619 7.53997 12.9581 6.9795 12.9986C6.94636 13.0011 6.91355 13.0119 6.88073 13.0186C6.62646 13.0186 6.37188 13.0186 6.11761 13.0186C5.94587 12.9982 5.7735 12.9807 5.60208 12.9565C4.31801 12.7752 3.18242 12.2622 2.21061 11.4038C1.06578 10.3928 0.349821 9.13487 0.0863166 7.62649C0.0436205 7.38179 0.0190857 7.13389 -0.0137329 6.88759C-0.012777 6.63365 -0.012778 6.37938 -0.012778 6.1248Z" fill="black" fill-opacity="0.52"/>
<path d="M7.00882 4.47091C7.00882 5.11963 7.005 5.76804 7.01105 6.41677C7.01297 6.62164 6.94701 6.78382 6.80203 6.92721C6.16096 7.56287 5.52306 8.20203 4.88549 8.84152C4.7214 9.00593 4.53309 9.07603 4.30877 8.99542C3.99174 8.88167 3.87799 8.49007 4.07968 8.21924C4.11505 8.17208 4.15711 8.12939 4.19885 8.08733C4.759 7.52654 5.3185 6.9648 5.88184 6.40689C5.95895 6.33042 5.99431 6.2549 5.994 6.14306C5.98985 4.92654 5.99113 3.70971 5.99145 2.49319C5.99145 2.22681 6.11029 2.03755 6.3225 1.95917C6.65897 1.8349 7.00373 2.07674 7.00755 2.44826C7.01265 2.9399 7.00882 3.43186 7.00914 3.92351C7.00882 4.1064 7.00882 4.28865 7.00882 4.47091Z" fill="black" fill-opacity="0.52"/>
</svg>
