<svg width="16" height="16" viewBox="0 0 16 16" fill="none" xmlns="http://www.w3.org/2000/svg">
<path d="M15.9922 7.96665C15.9057 8.15151 15.8083 8.32833 15.6002 8.40216C15.3471 8.49192 15.1169 8.44923 14.9233 8.26054C14.7677 8.10897 14.6195 7.94991 14.4313 7.80622C14.4313 7.86 14.4313 7.91373 14.4313 7.96751C14.4312 8.64794 14.434 9.32841 14.4302 10.0088C14.4278 10.4276 14.11 10.7053 13.7077 10.6501C13.4029 10.6083 13.1858 10.3493 13.1835 10.0125C13.1801 9.50874 13.1825 9.00486 13.1825 8.50105C13.1825 7.88813 13.1807 7.27522 13.1843 6.6623C13.1849 6.56271 13.1601 6.48985 13.0871 6.41664C11.5631 4.88954 10.0422 3.35947 8.5203 1.8303C8.20272 1.5112 7.85571 1.51073 7.53712 1.82807C5.99753 3.36162 4.45735 4.89457 2.92162 6.43198C2.8643 6.48934 2.82211 6.59077 2.82188 6.67182C2.81649 8.80661 2.81704 10.9414 2.81798 13.0763C2.81825 13.7313 3.1729 14.205 3.78047 14.3638C3.85505 14.3833 3.93427 14.3925 4.01146 14.3933C4.51082 14.3983 5.01021 14.3997 5.50957 14.4022C5.56127 14.4025 5.61298 14.4023 5.68982 14.4023C5.68982 14.3335 5.68982 14.2739 5.68982 14.2144C5.68982 12.6198 5.6897 11.0252 5.6899 9.43057C5.68998 8.94168 5.92721 8.70011 6.41419 8.69941C7.49123 8.69785 8.56826 8.69797 9.64529 8.69937C10.134 8.7 10.3726 8.94066 10.3726 9.42753C10.3729 11.017 10.3727 12.6064 10.3727 14.1958C10.3727 14.2572 10.3727 14.3187 10.3727 14.3792C10.3978 14.389 10.4115 14.399 10.4251 14.399C10.9712 14.396 11.5179 14.4065 12.0632 14.3843C12.5982 14.3625 13.0745 13.9064 13.1572 13.3738C13.1708 13.2867 13.1765 13.1985 13.1852 13.1107C13.2191 12.7707 13.4924 12.5262 13.8266 12.5371C14.1674 12.5483 14.4257 12.817 14.4307 13.1656C14.449 14.4421 13.3794 15.5895 12.1015 15.634C11.3324 15.6608 10.5617 15.651 9.79183 15.6468C9.36404 15.6444 9.12451 15.3873 9.12428 14.9552C9.12346 13.3554 9.12397 11.7556 9.12393 10.1557C9.12393 10.0941 9.12393 10.0326 9.12393 9.95849C8.39401 9.95849 7.67495 9.95849 6.93856 9.95849C6.93856 10.0225 6.93856 10.0835 6.93856 10.1444C6.93856 11.7339 6.93868 13.3233 6.93848 14.9127C6.93844 15.4112 6.70313 15.6494 6.20393 15.6487C5.44436 15.6477 4.68404 15.663 3.92541 15.6349C2.64908 15.5877 1.60518 14.5301 1.57575 13.2547C1.55409 12.315 1.56939 11.3745 1.56884 10.4344C1.56838 9.56205 1.56873 8.68973 1.56873 7.77426C1.39249 7.94929 1.24123 8.10082 1.08849 8.25083C0.890912 8.44489 0.659186 8.49434 0.399673 8.4015C0.192493 8.32743 0.0925124 8.15287 0.00775146 7.96661C0.00775146 7.87311 0.00775146 7.77961 0.00775146 7.6861C0.127986 7.5272 0.231322 7.35151 0.370912 7.21192C2.4588 5.12388 4.55144 3.04056 6.64307 0.956231C7.45942 0.142689 8.60424 0.144953 9.41739 0.962124C11.4929 3.04786 13.5692 5.13278 15.6409 7.22222C15.7763 7.35877 15.8759 7.53067 15.9921 7.68614C15.9922 7.77965 15.9922 7.87315 15.9922 7.96665Z" fill="#141414" fill-opacity="0.52"/>
</svg>
