<svg width="156" height="55" viewBox="0 0 156 55" fill="none" xmlns="http://www.w3.org/2000/svg">
<path fill-rule="evenodd" clip-rule="evenodd" d="M51.0938 8.11611L28.2618 0.0633709C28.0937 0.0062201 27.9104 0.0062201 27.7422 0.0633709L4.90615 8.11611C4.59673 8.22688 4.38672 8.52108 4.38672 8.84954C4.38672 17.0014 6.54493 26.4214 10.3038 34.6957C13.3523 41.4074 18.8377 50.3655 27.643 54.8998C27.7576 54.9569 27.8797 54.9875 28.002 54.9875C28.1241 54.9875 28.2464 54.9569 28.3573 54.8998C37.1663 50.3653 42.648 41.4074 45.7002 34.6957C49.4591 26.4216 51.6134 17.0014 51.6134 8.84954C51.6134 8.52093 51.4071 8.22688 51.0938 8.11611Z" fill="#6E62E5"/>
<path fill-rule="evenodd" clip-rule="evenodd" d="M48.4086 10.534L28.002 3.34082L7.5918 10.534C7.87432 18.2389 10.0404 26.4442 13.1958 33.3814C16.3703 40.3758 21.2217 47.5269 28.002 51.4767C34.7787 47.5269 39.6302 40.3758 42.8084 33.3814C45.9598 26.4442 48.1294 18.2389 48.4086 10.534Z" fill="white"/>
<path fill-rule="evenodd" clip-rule="evenodd" d="M26.7871 35.3412C26.7871 33.2325 25.133 31.5441 23.0932 31.3683V29.6455L22.2488 30.0657V31.4026C20.2816 31.651 18.7344 33.3049 18.7344 35.3411V39.035C18.7344 39.2794 18.9445 39.459 19.1546 39.459H20.5603C20.7743 39.459 20.9843 39.2794 20.9843 39.035C20.9843 38.7866 20.7743 38.611 20.5603 38.611H19.5784V35.3411C19.5784 33.5837 21.0186 32.1781 22.776 32.1781C24.5369 32.1781 25.9428 33.5837 25.9428 35.3411V38.611H25.0641C24.8157 38.611 24.6401 38.7866 24.6401 39.035C24.6401 39.2794 24.8159 39.459 25.0641 39.459H26.3629C26.6114 39.459 26.787 39.2794 26.787 39.035V35.3412H26.7871Z" fill="white"/>
<path fill-rule="evenodd" clip-rule="evenodd" d="M33.4339 29.8555V33.0911V33.1292C32.7311 33.2668 32.2002 33.901 32.2002 34.6382C32.2002 35.5206 32.9069 36.2196 33.7473 36.2196C34.6297 36.2196 35.2982 35.5206 35.2982 34.6382C35.2982 33.9696 34.874 33.408 34.24 33.198C34.2782 33.1635 34.2782 33.1292 34.2782 33.0911V30.2414L33.4339 29.8555ZM33.0098 34.6383C33.0098 34.2524 33.3269 33.9355 33.7473 33.9355C34.1369 33.9355 34.4882 34.2524 34.4882 34.6383C34.4882 35.0623 34.1369 35.3756 33.7473 35.3756C33.3271 35.3756 33.0098 35.0623 33.0098 34.6383Z" fill="white"/>
<path fill-rule="evenodd" clip-rule="evenodd" d="M15.1477 33.3168C17.9478 39.3639 22.1727 45.4949 28.0326 48.9062C33.8771 45.5025 38.0945 39.3943 40.8946 33.3626C39.4468 32.0905 37.2387 31.6169 34.2783 30.2416V33.0913C34.2783 33.1294 34.2783 33.1638 34.2401 33.1982C34.8741 33.4082 35.2983 33.9698 35.2983 34.6384C35.2983 35.5208 34.6298 36.2198 33.7474 36.2198C32.9069 36.2198 32.2003 35.5208 32.2003 34.6384C32.2003 33.9012 32.7313 33.2669 33.434 33.1294C33.434 33.1294 33.434 33.1294 33.434 33.0913V29.8557C32.9757 29.6112 32.483 29.363 31.9901 29.0841V27.1474C33.1859 26.3758 33.6097 24.6873 33.9957 23.1745C34.1716 23.1401 34.3129 22.8574 34.3129 22.5061V22.4029C34.4544 22.2271 34.5916 21.9446 34.6987 21.4861C34.84 21.0314 35.3673 19.6258 34.8744 19.2705C34.6644 19.1672 34.4887 19.2018 34.3817 19.4499C34.3817 19.4499 35.0159 15.9662 34.5231 14.4879C33.4343 10.6565 24.4307 9.60198 24.4307 11.9934C20.5992 13.0822 21.302 16.7034 21.8293 19.4845C21.8293 19.4845 21.581 19.133 21.2297 19.4845C20.8095 19.9391 21.2679 20.9933 21.4054 21.4861C21.5123 21.9102 21.6537 22.1546 21.7569 22.3647C21.7569 22.4029 21.7569 22.4373 21.7569 22.5061C21.7569 22.8574 21.8981 23.1745 22.1083 23.1745C22.5666 24.8631 22.8494 26.5171 24.1138 27.3957V29.0841C23.7968 29.2941 23.4452 29.47 23.094 29.6456V31.3685C25.1337 31.5442 26.7879 33.2326 26.7879 35.3414V39.0353C26.7879 39.2797 26.6123 39.4593 26.3639 39.4593H25.0651C24.8166 39.4593 24.641 39.2797 24.641 39.0353C24.641 38.7869 24.8168 38.6113 25.0651 38.6113H25.9437V35.3414C25.9437 33.584 24.538 32.1784 22.7769 32.1784C21.0195 32.1784 19.5794 33.584 19.5794 35.3414V38.6113H20.5612C20.7752 38.6113 20.9852 38.7869 20.9852 39.0353C20.9852 39.2797 20.7752 39.4593 20.5612 39.4593H19.1555C18.9455 39.4593 18.7353 39.2797 18.7353 39.0353V35.3414C18.7353 33.3051 20.2825 31.6511 22.2498 31.4029V30.066C19.0286 31.5938 16.6565 31.9492 15.1477 33.3168ZM33.7472 35.3758C33.327 35.3758 33.0098 35.0625 33.0098 34.6385C33.0098 34.2526 33.3269 33.9356 33.7472 33.9356C34.1368 33.9356 34.4882 34.2526 34.4882 34.6385C34.4882 35.0625 34.1368 35.3758 33.7472 35.3758Z" fill="#6E62E5"/>
<path d="M71.38 12.5H74.19L79.28 26.5H76.69L75.79 24.02H69.79L68.89 26.5H66.3L71.38 12.5ZM70.68 21.58H74.89L72.78 15.81L70.68 21.58ZM83.0267 31.5H80.5867V16.5H83.0267V17.77C83.3534 17.3167 83.7534 16.95 84.2267 16.67C84.7067 16.3833 85.2667 16.24 85.9067 16.24C86.6401 16.24 87.3234 16.3767 87.9567 16.65C88.5901 16.9233 89.1467 17.3033 89.6267 17.79C90.1134 18.27 90.4901 18.8267 90.7567 19.46C91.0301 20.0933 91.1667 20.7733 91.1667 21.5C91.1667 22.2267 91.0301 22.91 90.7567 23.55C90.4901 24.19 90.1134 24.7533 89.6267 25.24C89.1467 25.72 88.5901 26.0967 87.9567 26.37C87.3234 26.6433 86.6401 26.78 85.9067 26.78C85.2667 26.78 84.7067 26.64 84.2267 26.36C83.7534 26.0733 83.3534 25.7033 83.0267 25.25V31.5ZM85.8767 18.59C85.3701 18.59 84.9167 18.7233 84.5167 18.99C84.1167 19.25 83.8034 19.6 83.5767 20.04C83.3501 20.48 83.2367 20.9667 83.2367 21.5C83.2367 22.0333 83.3501 22.5233 83.5767 22.97C83.8034 23.41 84.1167 23.7633 84.5167 24.03C84.9167 24.29 85.3701 24.42 85.8767 24.42C86.3901 24.42 86.8601 24.29 87.2867 24.03C87.7134 23.77 88.0534 23.42 88.3067 22.98C88.5601 22.5333 88.6867 22.04 88.6867 21.5C88.6867 20.9667 88.5601 20.48 88.3067 20.04C88.0534 19.6 87.7134 19.25 87.2867 18.99C86.8667 18.7233 86.3967 18.59 85.8767 18.59ZM97.1742 26.76C96.2542 26.76 95.4142 26.5233 94.6542 26.05C93.9009 25.5767 93.2976 24.94 92.8442 24.14C92.3976 23.34 92.1742 22.4567 92.1742 21.49C92.1742 20.7633 92.3042 20.0833 92.5642 19.45C92.8242 18.81 93.1809 18.25 93.6342 17.77C94.0942 17.2833 94.6276 16.9033 95.2342 16.63C95.8409 16.3567 96.4876 16.22 97.1742 16.22C97.9542 16.22 98.6676 16.3867 99.3142 16.72C99.9676 17.0467 100.521 17.4967 100.974 18.07C101.428 18.6433 101.758 19.2967 101.964 20.03C102.171 20.7633 102.218 21.53 102.104 22.33H94.7942C94.8876 22.7033 95.0409 23.04 95.2542 23.34C95.4676 23.6333 95.7376 23.87 96.0642 24.05C96.3909 24.2233 96.7609 24.3133 97.1742 24.32C97.6009 24.3267 97.9876 24.2267 98.3342 24.02C98.6876 23.8067 98.9809 23.52 99.2142 23.16L101.704 23.74C101.298 24.6267 100.691 25.3533 99.8842 25.92C99.0776 26.48 98.1742 26.76 97.1742 26.76ZM94.7142 20.5H99.6342C99.5609 20.1 99.4042 19.74 99.1642 19.42C98.9309 19.0933 98.6409 18.8333 98.2942 18.64C97.9476 18.4467 97.5742 18.35 97.1742 18.35C96.7742 18.35 96.4042 18.4467 96.0642 18.64C95.7242 18.8267 95.4342 19.0833 95.1942 19.41C94.9609 19.73 94.8009 20.0933 94.7142 20.5ZM102.511 26.5L106.171 21.48L102.541 16.49H105.551L107.671 19.4L109.801 16.49H112.811L109.181 21.48L112.841 26.5H109.831L107.671 23.54L105.521 26.5H102.511ZM114.845 26.5L117.565 12.5H119.585L122.995 21.47L126.405 12.5H128.425L131.145 26.5H128.655L126.975 17.84L123.825 26.18H122.155L119.005 17.84L117.335 26.5H114.845ZM136.881 26.76C135.961 26.76 135.121 26.5233 134.361 26.05C133.608 25.5767 133.005 24.94 132.551 24.14C132.105 23.34 131.881 22.4567 131.881 21.49C131.881 20.7633 132.011 20.0833 132.271 19.45C132.531 18.81 132.888 18.25 133.341 17.77C133.801 17.2833 134.335 16.9033 134.941 16.63C135.548 16.3567 136.195 16.22 136.881 16.22C137.661 16.22 138.375 16.3867 139.021 16.72C139.675 17.0467 140.228 17.4967 140.681 18.07C141.135 18.6433 141.465 19.2967 141.671 20.03C141.878 20.7633 141.925 21.53 141.811 22.33H134.501C134.595 22.7033 134.748 23.04 134.961 23.34C135.175 23.6333 135.445 23.87 135.771 24.05C136.098 24.2233 136.468 24.3133 136.881 24.32C137.308 24.3267 137.695 24.2267 138.041 24.02C138.395 23.8067 138.688 23.52 138.921 23.16L141.411 23.74C141.005 24.6267 140.398 25.3533 139.591 25.92C138.785 26.48 137.881 26.76 136.881 26.76ZM134.421 20.5H139.341C139.268 20.1 139.111 19.74 138.871 19.42C138.638 19.0933 138.348 18.8333 138.001 18.64C137.655 18.4467 137.281 18.35 136.881 18.35C136.481 18.35 136.111 18.4467 135.771 18.64C135.431 18.8267 135.141 19.0833 134.901 19.41C134.668 19.73 134.508 20.0933 134.421 20.5ZM151.037 11.5H153.477V26.5H151.037V25.25C150.717 25.6967 150.314 26.06 149.827 26.34C149.341 26.62 148.777 26.76 148.137 26.76C147.411 26.76 146.731 26.6233 146.097 26.35C145.464 26.0767 144.904 25.7 144.417 25.22C143.937 24.7333 143.561 24.1733 143.287 23.54C143.014 22.9067 142.877 22.2267 142.877 21.5C142.877 20.7733 143.014 20.0933 143.287 19.46C143.561 18.8267 143.937 18.27 144.417 17.79C144.904 17.3033 145.464 16.9233 146.097 16.65C146.731 16.3767 147.411 16.24 148.137 16.24C148.777 16.24 149.341 16.38 149.827 16.66C150.314 16.9333 150.717 17.2967 151.037 17.75V11.5ZM148.167 24.41C148.687 24.41 149.147 24.28 149.547 24.02C149.947 23.76 150.261 23.41 150.487 22.97C150.714 22.5233 150.827 22.0333 150.827 21.5C150.827 20.96 150.714 20.47 150.487 20.03C150.261 19.5833 149.944 19.23 149.537 18.97C149.137 18.71 148.681 18.58 148.167 18.58C147.654 18.58 147.184 18.7133 146.757 18.98C146.337 19.24 146.001 19.59 145.747 20.03C145.501 20.47 145.377 20.96 145.377 21.5C145.377 22.04 145.504 22.53 145.757 22.97C146.011 23.41 146.347 23.76 146.767 24.02C147.194 24.28 147.661 24.41 148.167 24.41Z" fill="#6E62E5"/>
<path d="M72.367 33.7H73.543V43.5H72.367V38.838H67.516V43.5H66.34V33.7H67.516V37.662H72.367V33.7ZM78.2384 43.682C77.5944 43.682 77.0064 43.5163 76.4744 43.185C75.947 42.8537 75.5247 42.4103 75.2074 41.855C74.8947 41.295 74.7384 40.6767 74.7384 40C74.7384 39.4867 74.8294 39.0083 75.0114 38.565C75.1934 38.117 75.443 37.725 75.7604 37.389C76.0824 37.0483 76.4557 36.7823 76.8804 36.591C77.305 36.3997 77.7577 36.304 78.2384 36.304C78.8824 36.304 79.468 36.4697 79.9954 36.801C80.5274 37.1323 80.9497 37.578 81.2624 38.138C81.5797 38.698 81.7384 39.3187 81.7384 40C81.7384 40.5087 81.6474 40.9847 81.4654 41.428C81.2834 41.8713 81.0314 42.2633 80.7094 42.604C80.392 42.94 80.021 43.2037 79.5964 43.395C79.1764 43.5863 78.7237 43.682 78.2384 43.682ZM78.2384 42.506C78.677 42.506 79.0714 42.3917 79.4214 42.163C79.776 41.9297 80.0537 41.624 80.2544 41.246C80.4597 40.8633 80.5624 40.448 80.5624 40C80.5624 39.5427 80.4574 39.1227 80.2474 38.74C80.042 38.3573 79.7644 38.0517 79.4144 37.823C79.0644 37.5943 78.6724 37.48 78.2384 37.48C77.7997 37.48 77.4054 37.5967 77.0554 37.83C76.7054 38.0587 76.4277 38.3643 76.2224 38.747C76.017 39.1297 75.9144 39.5473 75.9144 40C75.9144 40.4667 76.0194 40.8913 76.2294 41.274C76.4394 41.652 76.7217 41.953 77.0764 42.177C77.431 42.3963 77.8184 42.506 78.2384 42.506ZM85.059 43.633C84.681 43.619 84.3123 43.549 83.953 43.423C83.5983 43.2923 83.2857 43.1173 83.015 42.898C82.749 42.674 82.5553 42.4173 82.434 42.128L83.442 41.694C83.512 41.8527 83.638 42.002 83.82 42.142C84.002 42.282 84.212 42.394 84.45 42.478C84.688 42.562 84.9283 42.604 85.171 42.604C85.4277 42.604 85.668 42.5643 85.892 42.485C86.116 42.4057 86.298 42.289 86.438 42.135C86.5827 41.9763 86.655 41.7873 86.655 41.568C86.655 41.3347 86.5757 41.1527 86.417 41.022C86.263 40.8867 86.067 40.7817 85.829 40.707C85.5957 40.6277 85.3577 40.553 85.115 40.483C84.6343 40.3617 84.205 40.217 83.827 40.049C83.449 39.8763 83.1503 39.6593 82.931 39.398C82.7163 39.132 82.609 38.7937 82.609 38.383C82.609 37.949 82.728 37.5733 82.966 37.256C83.2087 36.9387 83.526 36.6937 83.918 36.521C84.31 36.3483 84.73 36.262 85.178 36.262C85.7427 36.262 86.2583 36.3833 86.725 36.626C87.1917 36.8687 87.5393 37.1977 87.768 37.613L86.823 38.166C86.7437 37.998 86.6223 37.851 86.459 37.725C86.2957 37.5943 86.109 37.4917 85.899 37.417C85.689 37.3423 85.4743 37.3027 85.255 37.298C84.9843 37.2887 84.73 37.3237 84.492 37.403C84.2587 37.4823 84.0697 37.6037 83.925 37.767C83.785 37.9257 83.715 38.124 83.715 38.362C83.715 38.5953 83.7897 38.7727 83.939 38.894C84.093 39.0153 84.2913 39.1133 84.534 39.188C84.7813 39.258 85.0497 39.3397 85.339 39.433C85.7637 39.5683 86.1603 39.7247 86.529 39.902C86.8977 40.0793 87.194 40.301 87.418 40.567C87.6467 40.833 87.7587 41.162 87.754 41.554C87.754 41.9833 87.6257 42.359 87.369 42.681C87.1123 42.9983 86.7787 43.241 86.368 43.409C85.962 43.577 85.5257 43.6517 85.059 43.633ZM90.1293 47H88.9533V36.5H90.1293V37.697C90.3673 37.2863 90.6846 36.955 91.0813 36.703C91.4779 36.4463 91.9493 36.318 92.4953 36.318C93.0039 36.318 93.4799 36.4137 93.9233 36.605C94.3713 36.7963 94.7633 37.0623 95.0993 37.403C95.4353 37.739 95.6989 38.1287 95.8903 38.572C96.0816 39.0153 96.1773 39.4913 96.1773 40C96.1773 40.5087 96.0816 40.987 95.8903 41.435C95.6989 41.883 95.4353 42.2773 95.0993 42.618C94.7633 42.954 94.3713 43.2177 93.9233 43.409C93.4799 43.6003 93.0039 43.696 92.4953 43.696C91.9493 43.696 91.4779 43.57 91.0813 43.318C90.6846 43.0613 90.3673 42.7277 90.1293 42.317V47ZM92.4813 37.459C92.0286 37.459 91.6319 37.5733 91.2913 37.802C90.9506 38.0307 90.6869 38.3363 90.5003 38.719C90.3183 39.1017 90.2273 39.5287 90.2273 40C90.2273 40.4667 90.3183 40.8937 90.5003 41.281C90.6869 41.6683 90.9483 41.9763 91.2843 42.205C91.6249 42.4337 92.0239 42.548 92.4813 42.548C92.9339 42.548 93.3493 42.436 93.7273 42.212C94.1053 41.9833 94.4086 41.6777 94.6373 41.295C94.8659 40.9077 94.9803 40.476 94.9803 40C94.9803 39.5333 94.8683 39.1087 94.6443 38.726C94.4203 38.3387 94.1193 38.0307 93.7413 37.802C93.3633 37.5733 92.9433 37.459 92.4813 37.459ZM97.2521 36.5H98.4281V43.5H97.2521V36.5ZM97.8541 35.359C97.6674 35.359 97.5111 35.2983 97.3851 35.177C97.2591 35.0557 97.1961 34.904 97.1961 34.722C97.1961 34.54 97.2591 34.3883 97.3851 34.267C97.5111 34.1457 97.6651 34.085 97.8471 34.085C98.0291 34.085 98.1831 34.1457 98.3091 34.267C98.4351 34.3883 98.4981 34.54 98.4981 34.722C98.4981 34.904 98.4351 35.0557 98.3091 35.177C98.1878 35.2983 98.0361 35.359 97.8541 35.359ZM103.736 37.676H102.147L102.14 43.5H100.964L100.971 37.676H99.7665V36.5H100.971L100.964 34.302H102.14L102.147 36.5H103.736V37.676ZM110.441 36.5H111.617V43.5H110.441L110.392 42.317C110.172 42.723 109.869 43.052 109.482 43.304C109.099 43.556 108.642 43.682 108.11 43.682C107.596 43.682 107.116 43.5863 106.668 43.395C106.22 43.199 105.823 42.9307 105.478 42.59C105.137 42.2447 104.871 41.848 104.68 41.4C104.488 40.952 104.393 40.469 104.393 39.951C104.393 39.4517 104.486 38.9803 104.673 38.537C104.859 38.0937 105.118 37.7063 105.45 37.375C105.786 37.039 106.173 36.7777 106.612 36.591C107.05 36.3997 107.522 36.304 108.026 36.304C108.576 36.304 109.059 36.4347 109.475 36.696C109.89 36.9527 110.226 37.2863 110.483 37.697L110.441 36.5ZM108.089 42.541C108.551 42.541 108.95 42.429 109.286 42.205C109.626 41.9763 109.888 41.6683 110.07 41.281C110.256 40.8937 110.35 40.4667 110.35 40C110.35 39.524 110.256 39.0947 110.07 38.712C109.883 38.3247 109.619 38.019 109.279 37.795C108.943 37.5663 108.546 37.452 108.089 37.452C107.627 37.452 107.207 37.5663 106.829 37.795C106.451 38.0237 106.15 38.3317 105.926 38.719C105.706 39.1017 105.597 39.5287 105.597 40C105.597 40.4713 105.711 40.9007 105.94 41.288C106.168 41.6707 106.472 41.9763 106.85 42.205C107.228 42.429 107.641 42.541 108.089 42.541ZM113.098 43.5V33H114.274V43.5H113.098Z" fill="#141414" fill-opacity="0.32"/>
</svg>
