<svg width="40" height="40" viewBox="0 0 40 40" fill="none" xmlns="http://www.w3.org/2000/svg">
<mask id="mask0_128_198" style="mask-type:luminance" maskUnits="userSpaceOnUse" x="9" y="8" width="28" height="32">
<path d="M9.4165 8.29688H36.5065V40H9.4165V8.29688Z" fill="white"/>
</mask>
<g mask="url(#mask0_128_198)">
<path d="M23.0622 25.8385C22.92 25.8385 22.7844 25.8559 22.6422 25.8611C21.9825 22.9583 21.164 20.533 20.3026 18.533C21.9015 16.8246 27.3628 11.3212 32.0668 10.5538L31.7477 8.39233C26.8204 9.19615 21.5245 14.1857 19.332 16.4548C17.1991 12.3125 15.129 10.5833 14.9917 10.4722L13.7136 12.1979C13.7599 12.2361 18.1978 16.033 20.5523 26.092C14.2824 27.3368 9.6875 33.0573 9.6875 39.8802H11.7708C11.7708 34.1128 15.6779 29.3229 20.9871 28.2795C21.1276 29.0278 21.2517 29.7847 21.3591 30.5573C17.1462 31.3958 13.9798 35.2587 13.9798 39.8802H16.0632C16.0632 36 18.9451 32.7812 22.6901 32.5451C22.7811 32.533 22.8753 32.5312 22.9679 32.5312C26.789 32.5503 30.0413 35.7951 30.0413 39.8802H32.123C32.123 34.7604 28.2589 30.5989 23.4425 30.3854C23.3333 29.5833 23.1994 28.8021 23.0572 28.026C23.0589 28.026 23.0605 28.026 23.0622 28.026C29.2775 28.026 34.332 33.3437 34.332 39.8802H36.4153C36.4153 32.1371 30.4249 25.8385 23.0622 25.8385Z" fill="#1A3C40"/>
</g>
<path d="M23.2902 10.8698C25.3619 5.79511 20.4115 3.92358 20.4115 3.92358C18.1926 10.0382 23.2902 10.8698 23.2902 10.8698Z" fill="#1A3C40"/>
<path d="M16.9097 0.296875C11.5046 3.55035 14.947 7.58681 14.947 7.58681C19.6114 5.03819 16.9097 0.296875 16.9097 0.296875Z" fill="#1A3C40"/>
<path d="M13.2259 10.625C13.4938 5.11283 8.23251 5.15797 8.23251 5.15797C8.16968 11.7014 13.2259 10.625 13.2259 10.625Z" fill="#1A3C40"/>
<mask id="mask1_128_198" style="mask-type:luminance" maskUnits="userSpaceOnUse" x="0" y="7" width="8" height="5">
<path d="M0 7.40796H7.29993V11.8524H0V7.40796Z" fill="white"/>
</mask>
<g mask="url(#mask1_128_198)">
<path d="M0.0146484 8.56769C3.51333 13.9809 7.08641 10.0712 7.08641 10.0712C4.31359 5.38019 0.0146484 8.56769 0.0146484 8.56769Z" fill="#1A3C40"/>
</g>
<path d="M12.2538 14.0069C8.21612 10.4722 5.09277 14.9201 5.09277 14.9201C10.0382 18.8993 12.2538 14.0069 12.2538 14.0069Z" fill="#1A3C40"/>
<path d="M14.4609 17.4236C9.21947 17.0052 9.13184 22.5295 9.13184 22.5295C15.3587 22.7587 14.4609 17.4236 14.4609 17.4236Z" fill="#1A3C40"/>
<mask id="mask2_128_198" style="mask-type:luminance" maskUnits="userSpaceOnUse" x="24" y="0" width="5" height="8">
<path d="M24.6543 0H28.8871V7.85243H24.6543V0Z" fill="white"/>
</mask>
<g mask="url(#mask2_128_198)">
<path d="M26.7129 7.70137C30.7853 4.21005 27.2221 0.145813 27.2221 0.145813C22.5611 4.48783 26.7129 7.70137 26.7129 7.70137Z" fill="#1A3C40"/>
</g>
<path d="M31.5309 20.0729C31.5656 13.5313 26.5127 14.6302 26.5127 14.6302C26.268 20.1441 31.5309 20.0729 31.5309 20.0729Z" fill="#1A3C40"/>
<mask id="mask3_128_198" style="mask-type:luminance" maskUnits="userSpaceOnUse" x="30" y="0" width="5" height="7">
<path d="M30.1572 0H34.8133V6.96354H30.1572V0Z" fill="white"/>
</mask>
<g mask="url(#mask3_128_198)">
<path d="M34.3142 0C28.3321 1.82812 30.7758 6.60069 30.7758 6.60069C35.88 5.27604 34.3142 0 34.3142 0Z" fill="#1A3C40"/>
</g>
<path d="M30.4019 12.4826C32.1049 17.7066 36.9743 15.6094 36.9743 15.6094C34.7173 9.51214 30.4019 12.4826 30.4019 12.4826Z" fill="#1A3C40"/>
<mask id="mask4_128_198" style="mask-type:luminance" maskUnits="userSpaceOnUse" x="32" y="5" width="8" height="6">
<path d="M32.6968 5.63019H40V10.0746H32.6968V5.63019Z" fill="white"/>
</mask>
<g mask="url(#mask4_128_198)">
<path d="M33.0405 8.85946C37.4221 11.9115 40.066 7.13376 40.066 7.13376C34.737 3.74314 33.0405 8.85946 33.0405 8.85946Z" fill="#1A3C40"/>
</g>
</svg>
