<svg width="55" height="55" viewBox="0 0 55 55" fill="none" xmlns="http://www.w3.org/2000/svg">
<path fill-rule="evenodd" clip-rule="evenodd" d="M50.5937 8.11611L27.7617 0.0633709C27.5936 0.0062201 27.4103 0.0062201 27.2421 0.0633709L4.40602 8.11611C4.09661 8.22688 3.8866 8.52108 3.8866 8.84954C3.8866 17.0014 6.04481 26.4214 9.8037 34.6957C12.8522 41.4074 18.3376 50.3655 27.1428 54.8998C27.2574 54.9569 27.3796 54.9875 27.5019 54.9875C27.624 54.9875 27.7463 54.9569 27.8572 54.8998C36.6661 50.3653 42.1479 41.4074 45.2 34.6957C48.9589 26.4216 51.1133 17.0014 51.1133 8.84954C51.1133 8.52093 50.907 8.22688 50.5937 8.11611Z" fill="#6E62E5"/>
<path fill-rule="evenodd" clip-rule="evenodd" d="M47.9084 10.534L27.5019 3.34082L7.09167 10.534C7.3742 18.2389 9.54025 26.4442 12.6957 33.3814C15.8702 40.3758 20.7215 47.5269 27.5019 51.4767C34.2786 47.5269 39.1301 40.3758 42.3083 33.3814C45.4597 26.4442 47.6293 18.2389 47.9084 10.534Z" fill="white"/>
<path fill-rule="evenodd" clip-rule="evenodd" d="M26.2871 35.3412C26.2871 33.2325 24.633 31.5441 22.5932 31.3683V29.6455L21.7488 30.0657V31.4026C19.7816 31.651 18.2344 33.3049 18.2344 35.3411V39.035C18.2344 39.2794 18.4445 39.459 18.6546 39.459H20.0603C20.2743 39.459 20.4843 39.2794 20.4843 39.035C20.4843 38.7866 20.2743 38.611 20.0603 38.611H19.0784V35.3411C19.0784 33.5837 20.5186 32.1781 22.276 32.1781C24.0369 32.1781 25.4428 33.5837 25.4428 35.3411V38.611H24.5641C24.3157 38.611 24.1401 38.7866 24.1401 39.035C24.1401 39.2794 24.3159 39.459 24.5641 39.459H25.8629C26.1114 39.459 26.287 39.2794 26.287 39.035V35.3412H26.2871Z" fill="white"/>
<path fill-rule="evenodd" clip-rule="evenodd" d="M32.9339 29.8555V33.0911V33.1292C32.2311 33.2668 31.7002 33.901 31.7002 34.6382C31.7002 35.5206 32.4069 36.2196 33.2473 36.2196C34.1297 36.2196 34.7982 35.5206 34.7982 34.6382C34.7982 33.9696 34.374 33.408 33.74 33.198C33.7782 33.1635 33.7782 33.1292 33.7782 33.0911V30.2414L32.9339 29.8555ZM32.5098 34.6383C32.5098 34.2524 32.8269 33.9355 33.2473 33.9355C33.6369 33.9355 33.9882 34.2524 33.9882 34.6383C33.9882 35.0623 33.6369 35.3756 33.2473 35.3756C32.8271 35.3756 32.5098 35.0623 32.5098 34.6383Z" fill="white"/>
<path fill-rule="evenodd" clip-rule="evenodd" d="M14.6477 33.3168C17.4478 39.3639 21.6727 45.4949 27.5326 48.9062C33.3771 45.5025 37.5945 39.3943 40.3946 33.3626C38.9468 32.0905 36.7387 31.6169 33.7783 30.2416V33.0913C33.7783 33.1294 33.7783 33.1638 33.7401 33.1982C34.3741 33.4082 34.7983 33.9698 34.7983 34.6384C34.7983 35.5208 34.1298 36.2198 33.2474 36.2198C32.4069 36.2198 31.7003 35.5208 31.7003 34.6384C31.7003 33.9012 32.2313 33.2669 32.934 33.1294C32.934 33.1294 32.934 33.1294 32.934 33.0913V29.8557C32.4757 29.6112 31.983 29.363 31.4901 29.0841V27.1474C32.6859 26.3758 33.1097 24.6873 33.4957 23.1745C33.6716 23.1401 33.8129 22.8574 33.8129 22.5061V22.4029C33.9544 22.2271 34.0916 21.9446 34.1987 21.4861C34.34 21.0314 34.8673 19.6258 34.3744 19.2705C34.1644 19.1672 33.9887 19.2018 33.8817 19.4499C33.8817 19.4499 34.5159 15.9662 34.0231 14.4879C32.9343 10.6565 23.9307 9.60198 23.9307 11.9934C20.0992 13.0822 20.802 16.7034 21.3293 19.4845C21.3293 19.4845 21.081 19.133 20.7297 19.4845C20.3095 19.9391 20.7679 20.9933 20.9054 21.4861C21.0123 21.9102 21.1537 22.1546 21.2569 22.3647C21.2569 22.4029 21.2569 22.4373 21.2569 22.5061C21.2569 22.8574 21.3981 23.1745 21.6083 23.1745C22.0666 24.8631 22.3494 26.5171 23.6138 27.3957V29.0841C23.2968 29.2941 22.9452 29.47 22.594 29.6456V31.3685C24.6337 31.5442 26.2879 33.2326 26.2879 35.3414V39.0353C26.2879 39.2797 26.1123 39.4593 25.8639 39.4593H24.5651C24.3166 39.4593 24.141 39.2797 24.141 39.0353C24.141 38.7869 24.3168 38.6113 24.5651 38.6113H25.4437V35.3414C25.4437 33.584 24.038 32.1784 22.2769 32.1784C20.5195 32.1784 19.0794 33.584 19.0794 35.3414V38.6113H20.0612C20.2752 38.6113 20.4852 38.7869 20.4852 39.0353C20.4852 39.2797 20.2752 39.4593 20.0612 39.4593H18.6555C18.4455 39.4593 18.2353 39.2797 18.2353 39.0353V35.3414C18.2353 33.3051 19.7825 31.6511 21.7498 31.4029V30.066C18.5286 31.5938 16.1565 31.9492 14.6477 33.3168ZM33.2472 35.3758C32.827 35.3758 32.5098 35.0625 32.5098 34.6385C32.5098 34.2526 32.8269 33.9356 33.2472 33.9356C33.6368 33.9356 33.9882 34.2526 33.9882 34.6385C33.9882 35.0625 33.6368 35.3758 33.2472 35.3758Z" fill="#6E62E5"/>
</svg>
