<svg width="14" height="16" viewBox="0 0 14 16" fill="none" xmlns="http://www.w3.org/2000/svg">
<path d="M2.73145 15.4996C2.57684 15.4607 2.41946 15.4305 2.26809 15.3815C1.31763 15.0738 0.65966 14.1846 0.65759 13.1836C0.652707 10.7961 0.651731 8.40859 0.657668 6.02113C0.660793 4.75942 1.67669 3.71711 2.93481 3.70161C4.33313 3.68434 5.7318 3.69629 7.13031 3.69797C7.35917 3.69825 7.55878 3.7829 7.72144 3.94575C8.75562 4.98098 9.78921 6.0168 10.8227 7.05273C10.9498 7.18007 11.0069 7.33449 11.0066 7.51496C11.0051 8.4182 11.0072 9.32144 11.0053 10.2247C11.0046 10.5817 10.7542 10.8418 10.42 10.8414C10.0901 10.8409 9.83815 10.5756 9.83706 10.2201C9.83503 9.56101 9.83643 8.90191 9.8364 8.24277C9.8364 8.1896 9.8364 8.13644 9.8364 8.06199C9.57143 8.06199 9.31452 8.07331 9.05909 8.05867C8.82241 8.04507 8.57991 8.03128 8.35284 7.96984C7.34929 7.69835 6.65789 6.78379 6.64961 5.74195C6.64734 5.45898 6.64925 5.17598 6.64925 4.86863C6.59133 4.86863 6.54027 4.86863 6.48925 4.86863C5.34898 4.86863 4.20875 4.86793 3.06848 4.86891C2.32009 4.86953 1.82559 5.36707 1.82544 6.11949C1.82493 8.43863 1.82493 10.7578 1.82544 13.0769C1.82559 13.8377 2.31802 14.3276 3.08149 14.3277C4.91371 14.328 6.74589 14.328 8.57812 14.3277C9.32022 14.3276 9.79347 13.8796 9.83702 13.1371C9.85604 12.8124 10.1128 12.5669 10.4292 12.5709C10.7505 12.575 11.0009 12.8343 11.0056 13.168C11.0213 14.2814 10.1509 15.3004 9.03991 15.4702C9.00276 15.4759 8.96683 15.4897 8.9303 15.4997C6.86398 15.4996 4.79774 15.4996 2.73145 15.4996ZM7.82554 5.74113C7.8064 6.35375 8.43066 6.97082 8.9548 6.8716C8.58351 6.49992 8.20675 6.12273 7.82554 5.74113Z" fill="white"/>
<path d="M11.2693 0.5C11.3726 0.52375 11.4765 0.545273 11.5792 0.57164C12.6138 0.837343 13.3415 1.76007 13.3435 2.83175C13.3481 5.29268 13.3454 7.75361 13.3446 10.2145C13.3445 10.582 13.0952 10.844 12.7549 10.8416C12.4158 10.8392 12.1759 10.5771 12.1758 10.2047C12.1753 7.76822 12.1762 5.33171 12.1751 2.89519C12.1748 2.25882 11.7784 1.78398 11.1682 1.6848C11.0918 1.67238 11.0128 1.67246 10.9351 1.67242C9.08813 1.67179 7.24118 1.67332 5.39419 1.67093C4.93884 1.67035 4.58736 1.85011 4.33521 2.23246C4.13775 2.53187 3.78798 2.60863 3.50849 2.42316C3.23115 2.23914 3.1672 1.88605 3.3633 1.58465C3.74884 0.99203 4.29021 0.637031 4.98935 0.526406C5.01708 0.522031 5.04349 0.509024 5.07048 0.500039C7.13676 0.5 9.20301 0.5 11.2693 0.5Z" fill="white"/>
<path d="M5.85801 9.2532C6.49563 9.25343 7.13332 9.24796 7.77086 9.25534C8.19304 9.26023 8.4682 9.67413 8.30933 10.0553C8.20926 10.2954 8.01769 10.4217 7.76121 10.4225C6.4957 10.4264 5.23016 10.4271 3.96466 10.4224C3.61681 10.4212 3.36931 10.1638 3.3711 9.83179C3.3729 9.50062 3.62286 9.25601 3.97431 9.25394C4.60223 9.25034 5.23012 9.25296 5.85801 9.2532Z" fill="white"/>
<path d="M5.85032 12.7771C5.23208 12.7771 4.61384 12.7779 3.9956 12.7768C3.62568 12.7761 3.37029 12.5346 3.37134 12.19C3.3724 11.8531 3.62728 11.6066 3.98689 11.6061C5.23798 11.604 6.48907 11.6039 7.74016 11.6062C8.0975 11.6069 8.35117 11.8577 8.34984 12.1958C8.34852 12.5336 8.09395 12.7758 7.73426 12.7766C7.10625 12.7781 6.47829 12.7771 5.85032 12.7771Z" fill="white"/>
<path d="M4.48987 8.06242C4.31483 8.06242 4.13979 8.06434 3.96479 8.06199C3.63851 8.05766 3.38737 7.82641 3.37218 7.51918C3.35577 7.1877 3.58085 6.91161 3.91358 6.89719C4.30179 6.8804 4.69178 6.88087 5.08003 6.89715C5.40479 6.91075 5.63807 7.18782 5.6251 7.50426C5.61217 7.82094 5.36077 8.05758 5.02956 8.06199C4.84968 8.06438 4.66975 8.06242 4.48987 8.06242Z" fill="white"/>
</svg>
