<svg width="13" height="14" viewBox="0 0 13 14" fill="none" xmlns="http://www.w3.org/2000/svg">
<path d="M1.31984 13.5C1.06187 13.4348 0.810759 13.3545 0.59824 13.1839C0.219665 12.8802 0.00663825 12.4872 0.00486091 12.0017C-0.00148675 10.2584 -0.00148749 8.51482 0.00409845 6.7715C0.00663751 5.95367 0.684822 5.28184 1.50291 5.27447C2.094 5.26914 2.68535 5.27193 3.2767 5.27371C3.58799 5.27473 3.80228 5.48928 3.80279 5.80133C3.80431 6.92689 3.80431 8.05246 3.80279 9.17803C3.80228 9.54391 3.72459 9.74982 3.43437 10.1893C3.69793 10.4925 3.8325 10.8472 3.8292 11.2535C3.82691 11.5117 3.82869 11.7696 3.82869 12.0279C3.82869 12.1751 3.82869 12.3224 3.82869 12.4773C3.87515 12.4798 3.91171 12.4836 3.94853 12.4836C6.12349 12.4839 8.29845 12.4841 10.4734 12.4836C10.7865 12.4836 10.9518 12.3216 10.9492 12.021C10.9477 11.8496 10.8525 11.7377 10.7136 11.6564C10.5778 11.5769 10.4709 11.4728 10.4198 11.3207C10.3023 10.9696 10.5694 10.6111 10.9698 10.5814C11.016 10.5781 11.0627 10.5798 11.1092 10.5793C11.3443 10.5768 11.5101 10.4587 11.5662 10.2536C11.6193 10.0604 11.5358 9.88186 11.3291 9.75795C11.195 9.67746 11.0825 9.5792 11.0302 9.4266C10.9129 9.08434 11.1412 8.75324 11.5281 8.70271C11.7988 8.66742 11.9395 8.53945 11.9608 8.30967C11.9809 8.09207 11.8506 7.92043 11.6018 7.83943C11.354 7.75894 11.1795 7.60432 11.1351 7.33975C11.0935 7.0927 11.2103 6.90861 11.3994 6.76033C11.5886 6.61205 11.6482 6.44066 11.5843 6.25226C11.5185 6.05879 11.3601 5.95824 11.1178 5.95824C10.007 5.95799 8.8964 5.95875 7.78556 5.95799C6.93701 5.95723 6.35429 5.39482 6.34261 4.54373C6.34033 4.36828 6.38552 4.17861 6.45789 4.01789C6.72652 3.42121 7.01496 2.83367 7.2973 2.24334C7.38972 2.05012 7.36662 1.84496 7.22951 1.6883C7.09443 1.53418 6.87836 1.4674 6.68919 1.54611C6.60109 1.58293 6.50842 1.6492 6.45738 1.72791C6.00644 2.42234 5.56414 3.12236 5.11955 3.82111C5.04922 3.93156 4.98345 4.04531 4.91008 4.15348C4.75011 4.38936 4.45431 4.45309 4.2192 4.30607C3.98509 4.15982 3.90308 3.8592 4.05467 3.61799C4.59219 2.76309 5.13097 1.9092 5.68424 1.06471C5.89092 0.749355 6.21795 0.595234 6.58332 0.523887C6.6115 0.518301 6.63867 0.507637 6.66634 0.499512C6.79304 0.499512 6.91974 0.499512 7.04644 0.499512C7.07386 0.508145 7.10052 0.51957 7.12871 0.525156C8.12656 0.720917 8.65215 1.78961 8.20349 2.70062C7.93105 3.25363 7.66039 3.80766 7.40521 4.36879C7.25642 4.69607 7.43136 4.94287 7.78734 4.94287C8.91494 4.94312 10.0425 4.94033 11.1699 4.94389C12.0753 4.94668 12.7466 5.74014 12.5953 6.63287C12.5664 6.804 12.4945 6.96777 12.4399 7.14246C12.6207 7.29226 12.7708 7.47939 12.8614 7.70766C12.9076 7.82395 12.9383 7.94633 12.9762 8.06592C12.9762 8.19287 12.9762 8.31982 12.9762 8.44678C12.968 8.47496 12.9574 8.50238 12.952 8.53107C12.8903 8.8576 12.7403 9.13639 12.4912 9.35525C12.4183 9.41924 12.4196 9.46342 12.4577 9.54467C12.7441 10.1556 12.5676 10.8731 12.0344 11.2862C11.9715 11.335 11.9044 11.3781 11.8344 11.4274C11.8501 11.468 11.8656 11.5063 11.8798 11.5449C12.0982 12.1434 11.8803 12.8627 11.3715 13.2342C11.1686 13.3822 10.9348 13.4462 10.6958 13.4993C7.5705 13.5 4.44517 13.5 1.31984 13.5ZM2.78945 6.28908C2.37939 6.28908 1.98711 6.28883 1.59482 6.28908C1.2165 6.28934 1.01592 6.48916 1.01566 6.86672C1.01541 7.76377 1.01566 8.66082 1.01566 9.55762C1.01566 9.5985 1.01566 9.63963 1.01566 9.69143C1.42521 9.69143 1.82105 9.69168 2.21689 9.69143C2.58709 9.69117 2.7892 9.48982 2.78945 9.12039C2.7897 8.22334 2.78945 7.32629 2.78945 6.42949C2.78945 6.38785 2.78945 6.34646 2.78945 6.28908ZM2.81281 12.4829C2.81281 12.0327 2.82195 11.5972 2.80925 11.1626C2.80214 10.9135 2.58125 10.7185 2.32937 10.7086C2.19023 10.7032 2.05084 10.7071 1.91144 10.7071C1.61691 10.7071 1.32263 10.7071 1.01998 10.7071C1.01998 11.1621 1.0083 11.6054 1.0248 12.0477C1.03343 12.2828 1.24799 12.4755 1.48234 12.4803C1.92058 12.4895 2.35933 12.4829 2.81281 12.4829Z" fill="#428574"/>
</svg>
