<svg width="16" height="16" viewBox="0 0 16 16" fill="none" xmlns="http://www.w3.org/2000/svg">
<g clip-path="url(#clip0_1_3317)">
<path d="M8.35156 0.50003C8.59953 0.547315 8.85069 0.582031 9.09497 0.643848C10.84 1.08556 12.1474 2.62212 12.3128 4.41743C12.5152 6.61443 11.0868 8.58556 8.92774 9.06731C8.61145 9.13789 8.27999 9.16291 7.95494 9.16763C6.70572 9.18576 5.48556 9.35489 4.31674 9.81541C3.65463 10.0763 3.03359 10.4111 2.49268 10.8791C1.95289 11.3462 1.68265 11.9427 1.67275 12.6554C1.66786 13.0068 1.67044 13.3584 1.67228 13.7099C1.67422 14.0792 1.91902 14.3274 2.28699 14.3275C6.09523 14.3284 9.90344 14.3284 13.7117 14.3275C14.0797 14.3275 14.329 14.0796 14.3267 13.711C14.3239 13.2525 14.3378 12.7917 14.2964 12.3363C14.2445 11.7649 13.9693 11.2897 13.5412 10.9082C13.1039 10.5185 12.6038 10.2271 12.0726 9.98472C11.7661 9.8448 11.6319 9.56325 11.72 9.2682C11.8132 8.95616 12.1494 8.75486 12.4473 8.88148C13.387 9.28083 14.2496 9.79733 14.863 10.6448C15.207 11.1201 15.4035 11.6569 15.4734 12.2398C15.4773 12.2724 15.4909 12.3039 15.4999 12.3359C15.4999 12.8828 15.4999 13.4297 15.4999 13.9766C15.4897 14.0078 15.4767 14.0384 15.4696 14.0703C15.3223 14.7236 14.9372 15.1707 14.309 15.4044C14.2012 15.4445 14.0875 15.4685 13.9765 15.5C9.99213 15.5 6.00775 15.5 2.02338 15.5C1.99215 15.4897 1.96153 15.4766 1.9296 15.4697C1.41292 15.3583 1.00402 15.0857 0.745769 14.6239C0.634294 14.4247 0.580125 14.1933 0.499939 13.9766C0.499939 13.4297 0.499939 12.8828 0.499939 12.3359C0.508464 12.3086 0.521501 12.2819 0.5249 12.254C0.640007 11.314 1.06572 10.543 1.79012 9.93696C2.5913 9.26668 3.50931 8.81422 4.50043 8.50288C4.77248 8.41742 5.04954 8.3479 5.32478 8.27094C5.31986 8.25494 5.31971 8.24366 5.31403 8.23804C5.29672 8.22096 5.2772 8.20616 5.25869 8.19028C4.09467 7.19331 3.55815 5.93264 3.6899 4.40272C3.83926 2.66826 5.11434 1.14034 6.79244 0.676221C7.07255 0.59876 7.36279 0.557832 7.64835 0.5C7.88281 0.500029 8.11719 0.50003 8.35156 0.50003ZM11.1639 4.84124C11.1665 3.10165 9.75362 1.67908 8.01638 1.67208C6.26934 1.66505 4.84144 3.07974 4.83608 4.82296C4.83069 6.56926 6.24714 7.99566 7.99077 7.99991C9.73607 8.00413 11.1613 6.5854 11.1639 4.84124Z" fill="#141414" fill-opacity="0.52"/>
</g>
<defs>
<clipPath id="clip0_1_3317">
<rect width="15" height="15" fill="white" transform="translate(0.5 0.5)"/>
</clipPath>
</defs>
</svg>
