<svg width="15" height="15" viewBox="0 0 15 15" fill="none" xmlns="http://www.w3.org/2000/svg">
<g clip-path="url(#clip0_697_10)">
<path d="M7.85162 2.95043e-05C8.09959 0.0473147 8.35075 0.0820314 8.59503 0.143848C10.34 0.585557 11.6474 2.12212 11.8129 3.91743C12.0153 6.11443 10.5869 8.08556 8.4278 8.56731C8.11151 8.63789 7.78005 8.66291 7.455 8.66763C6.20578 8.68576 4.98563 8.85489 3.8168 9.31541C3.15469 9.57627 2.53365 9.9111 1.99275 10.3791C1.45295 10.8462 1.18272 11.4427 1.17281 12.1554C1.16792 12.5068 1.1705 12.8584 1.17234 13.2099C1.17428 13.5792 1.41908 13.8274 1.78705 13.8275C5.59529 13.8284 9.40351 13.8284 13.2117 13.8275C13.5798 13.8275 13.8291 13.5796 13.8268 13.211C13.824 12.7525 13.8378 12.2917 13.7965 11.8363C13.7446 11.2649 13.4694 10.7897 13.0413 10.4082C12.604 10.0185 12.1038 9.72715 11.5727 9.48472C11.2661 9.3448 11.1319 9.06325 11.22 8.7682C11.3132 8.45616 11.6494 8.25486 11.9474 8.38148C12.8871 8.78083 13.7497 9.29733 14.3631 10.1448C14.7071 10.6201 14.9036 11.1569 14.9735 11.7398C14.9774 11.7724 14.9909 11.8039 15 11.8359C15 12.3828 15 12.9297 15 13.4766C14.9897 13.5078 14.9768 13.5384 14.9696 13.5703C14.8223 14.2236 14.4372 14.6707 13.8091 14.9044C13.7013 14.9445 13.5876 14.9685 13.4766 15C9.49219 15 5.50781 15 1.52344 15C1.49221 14.9897 1.46159 14.9766 1.42966 14.9697C0.912979 14.8583 0.504082 14.5857 0.24583 14.1239C0.134355 13.9247 0.0801855 13.6933 0 13.4766C0 12.9297 0 12.3828 0 11.8359C0.00852539 11.8086 0.0215622 11.7819 0.0249606 11.754C0.140068 10.814 0.565782 10.043 1.29018 9.43696C2.09136 8.76668 3.00937 8.31422 4.00049 8.00288C4.27254 7.91742 4.5496 7.8479 4.82484 7.77094C4.81992 7.75494 4.81977 7.74366 4.81409 7.73804C4.79678 7.72096 4.77727 7.70616 4.75875 7.69028C3.59473 6.69331 3.05821 5.43264 3.18996 3.90272C3.33932 2.16826 4.6144 0.640342 6.2925 0.176221C6.57261 0.0987602 6.86285 0.057832 7.14841 0C7.38287 2.92969e-05 7.61725 2.95043e-05 7.85162 2.95043e-05ZM10.664 4.34124C10.6666 2.60165 9.25368 1.17908 7.51644 1.17208C5.7694 1.16505 4.3415 2.57974 4.33614 4.32296C4.33075 6.06926 5.7472 7.49566 7.49083 7.49991C9.23613 7.50413 10.6614 6.0854 10.664 4.34124Z" fill="#141414" fill-opacity="0.52"/>
<path d="M7.85162 2.95043e-05C8.09959 0.0473147 8.35075 0.0820314 8.59503 0.143848C10.34 0.585557 11.6474 2.12212 11.8129 3.91743C12.0153 6.11443 10.5869 8.08556 8.4278 8.56731C8.11151 8.63789 7.78005 8.66291 7.455 8.66763C6.20578 8.68576 4.98563 8.85489 3.8168 9.31541C3.15469 9.57627 2.53365 9.9111 1.99275 10.3791C1.45295 10.8462 1.18272 11.4427 1.17281 12.1554C1.16792 12.5068 1.1705 12.8584 1.17234 13.2099C1.17428 13.5792 1.41908 13.8274 1.78705 13.8275C5.59529 13.8284 9.40351 13.8284 13.2117 13.8275C13.5798 13.8275 13.8291 13.5796 13.8268 13.211C13.824 12.7525 13.8378 12.2917 13.7965 11.8363C13.7446 11.2649 13.4694 10.7897 13.0413 10.4082C12.604 10.0185 12.1038 9.72715 11.5727 9.48472C11.2661 9.3448 11.1319 9.06325 11.22 8.7682C11.3132 8.45616 11.6494 8.25486 11.9474 8.38148C12.8871 8.78083 13.7497 9.29733 14.3631 10.1448C14.7071 10.6201 14.9036 11.1569 14.9735 11.7398C14.9774 11.7724 14.9909 11.8039 15 11.8359C15 12.3828 15 12.9297 15 13.4766C14.9897 13.5078 14.9768 13.5384 14.9696 13.5703C14.8223 14.2236 14.4372 14.6707 13.8091 14.9044C13.7013 14.9445 13.5876 14.9685 13.4766 15C9.49219 15 5.50781 15 1.52344 15C1.49221 14.9897 1.46159 14.9766 1.42966 14.9697C0.912979 14.8583 0.504082 14.5857 0.24583 14.1239C0.134355 13.9247 0.0801855 13.6933 0 13.4766C0 12.9297 0 12.3828 0 11.8359C0.00852539 11.8086 0.0215622 11.7819 0.0249606 11.754C0.140068 10.814 0.565782 10.043 1.29018 9.43696C2.09136 8.76668 3.00937 8.31422 4.00049 8.00288C4.27254 7.91742 4.5496 7.8479 4.82484 7.77094C4.81992 7.75494 4.81977 7.74366 4.81409 7.73804C4.79678 7.72096 4.77727 7.70616 4.75875 7.69028C3.59473 6.69331 3.05821 5.43264 3.18996 3.90272C3.33932 2.16826 4.6144 0.640342 6.2925 0.176221C6.57261 0.0987602 6.86285 0.057832 7.14841 0C7.38287 2.92969e-05 7.61725 2.95043e-05 7.85162 2.95043e-05ZM10.664 4.34124C10.6666 2.60165 9.25368 1.17908 7.51644 1.17208C5.7694 1.16505 4.3415 2.57974 4.33614 4.32296C4.33075 6.06926 5.7472 7.49566 7.49083 7.49991C9.23613 7.50413 10.6614 6.0854 10.664 4.34124Z" fill="#141414" fill-opacity="0.52"/>
</g>
<defs>
<clipPath id="clip0_697_10">
<rect width="15" height="15" fill="white"/>
</clipPath>
</defs>
</svg>
