<svg width="11" height="10" viewBox="0 0 11 10" fill="none" xmlns="http://www.w3.org/2000/svg">
<path d="M5.97009 5.98179C5.89859 6.04977 5.85517 6.08968 5.81307 6.13135C4.61702 7.32916 3.41965 8.52609 2.22579 9.72652C2.01438 9.93924 1.77228 10.0331 1.48193 9.95372C1.0214 9.82784 0.827541 9.27082 1.10342 8.88047C1.14728 8.81819 1.20254 8.76381 1.25649 8.70942C2.4407 7.52258 3.62491 6.33574 4.81088 5.15065C4.85649 5.10504 4.91833 5.07565 4.97272 5.03837C4.97535 5.01161 4.97842 4.98442 4.98105 4.95767C4.92491 4.92302 4.86 4.89758 4.81438 4.8524C3.62052 3.65986 2.4293 2.46468 1.23588 1.2717C1.09114 1.12697 0.985874 0.967316 0.979734 0.756351C0.970523 0.45986 1.09289 0.231789 1.35649 0.0975784C1.61833 -0.0361936 1.87579 -0.00724652 2.11175 0.171262C2.16833 0.213806 2.21701 0.266877 2.26745 0.317316C3.44815 1.49977 4.62886 2.68223 5.80868 3.866C5.85079 3.9081 5.88017 3.96293 5.92491 4.02477C6.00122 3.9524 6.04816 3.90942 6.09333 3.86468C7.28938 2.66688 8.48675 1.46951 9.68061 0.26907C9.89246 0.0559119 10.1359 -0.034439 10.4258 0.0484558C10.892 0.181789 11.0753 0.748456 10.7832 1.13837C10.7341 1.20372 10.6749 1.26161 10.617 1.31951C9.44465 2.49495 8.27184 3.66995 7.09816 4.84363C7.0521 4.88968 6.9964 4.92653 6.93061 4.97916C6.99596 5.04802 7.03851 5.09495 7.08324 5.14012C8.2714 6.33047 9.45912 7.52126 10.649 8.71074C10.7925 8.85416 10.9074 9.0081 10.9201 9.21951C10.9385 9.52258 10.8205 9.75854 10.5521 9.8989C10.2854 10.0384 10.0218 10.0094 9.78324 9.82302C9.70605 9.76249 9.63982 9.68793 9.57009 9.61819C8.41263 8.45898 7.25517 7.29977 6.09859 6.13925C6.05517 6.0967 6.0214 6.04539 5.97009 5.98179Z" fill="#141414" fill-opacity="0.32"/>
</svg>
