<svg width="48" height="48" viewBox="0 0 48 48" fill="none" xmlns="http://www.w3.org/2000/svg">
<circle cx="24" cy="24" r="23.5" stroke="#F6F6F6"/>
<path d="M23.9998 15.6666C26.264 15.6666 26.5465 15.675 27.4348 15.7166C28.3223 15.7583 28.9265 15.8975 29.4582 16.1041C30.0082 16.3158 30.4715 16.6025 30.9348 17.065C31.3586 17.4815 31.6865 17.9854 31.8957 18.5416C32.1015 19.0725 32.2415 19.6775 32.2832 20.565C32.3223 21.4533 32.3332 21.7358 32.3332 24C32.3332 26.2641 32.3248 26.5466 32.2832 27.435C32.2415 28.3225 32.1015 28.9266 31.8957 29.4583C31.6871 30.0148 31.3591 30.5188 30.9348 30.935C30.5181 31.3586 30.0143 31.6864 29.4582 31.8958C28.9273 32.1016 28.3223 32.2416 27.4348 32.2833C26.5465 32.3225 26.264 32.3333 23.9998 32.3333C21.7357 32.3333 21.4532 32.325 20.5648 32.2833C19.6773 32.2416 19.0732 32.1016 18.5415 31.8958C17.9851 31.687 17.4811 31.3591 17.0648 30.935C16.641 30.5184 16.3131 30.0145 16.104 29.4583C15.8973 28.9275 15.7582 28.3225 15.7165 27.435C15.6773 26.5466 15.6665 26.2641 15.6665 24C15.6665 21.7358 15.6748 21.4533 15.7165 20.565C15.7582 19.6766 15.8973 19.0733 16.104 18.5416C16.3125 17.9851 16.6405 17.4811 17.0648 17.065C17.4812 16.641 17.9852 16.3131 18.5415 16.1041C19.0732 15.8975 19.6765 15.7583 20.5648 15.7166C21.4532 15.6775 21.7357 15.6666 23.9998 15.6666ZM23.9998 19.8333C22.8948 19.8333 21.835 20.2723 21.0536 21.0537C20.2722 21.8351 19.8332 22.8949 19.8332 24C19.8332 25.105 20.2722 26.1648 21.0536 26.9462C21.835 27.7276 22.8948 28.1666 23.9998 28.1666C25.1049 28.1666 26.1647 27.7276 26.9461 26.9462C27.7275 26.1648 28.1665 25.105 28.1665 24C28.1665 22.8949 27.7275 21.8351 26.9461 21.0537C26.1647 20.2723 25.1049 19.8333 23.9998 19.8333ZM29.4165 19.625C29.4165 19.3487 29.3068 19.0837 29.1114 18.8884C28.9161 18.693 28.6511 18.5833 28.3748 18.5833C28.0986 18.5833 27.8336 18.693 27.6383 18.8884C27.4429 19.0837 27.3332 19.3487 27.3332 19.625C27.3332 19.9012 27.4429 20.1662 27.6383 20.3615C27.8336 20.5569 28.0986 20.6666 28.3748 20.6666C28.6511 20.6666 28.9161 20.5569 29.1114 20.3615C29.3068 20.1662 29.4165 19.9012 29.4165 19.625ZM23.9998 21.5C24.6629 21.5 25.2988 21.7634 25.7676 22.2322C26.2364 22.701 26.4998 23.3369 26.4998 24C26.4998 24.663 26.2364 25.2989 25.7676 25.7677C25.2988 26.2366 24.6629 26.5 23.9998 26.5C23.3368 26.5 22.7009 26.2366 22.2321 25.7677C21.7632 25.2989 21.4998 24.663 21.4998 24C21.4998 23.3369 21.7632 22.701 22.2321 22.2322C22.7009 21.7634 23.3368 21.5 23.9998 21.5Z" fill="white"/>
</svg>
