<svg width="177" height="44" viewBox="0 0 177 44" fill="none" xmlns="http://www.w3.org/2000/svg">
<g clip-path="url(#clip0_128_196)">
<mask id="mask0_128_196" style="mask-type:luminance" maskUnits="userSpaceOnUse" x="9" y="10" width="28" height="32">
<path d="M9.4165 10.2969H36.5065V42H9.4165V10.2969Z" fill="white"/>
</mask>
<g mask="url(#mask0_128_196)">
<path d="M23.0622 27.8385C22.92 27.8385 22.7844 27.8559 22.6422 27.8611C21.9825 24.9583 21.164 22.533 20.3026 20.533C21.9015 18.8246 27.3628 13.3212 32.0668 12.5538L31.7477 10.3923C26.8204 11.1962 21.5245 16.1857 19.332 18.4548C17.1991 14.3125 15.129 12.5833 14.9917 12.4722L13.7136 14.1979C13.7599 14.2361 18.1978 18.033 20.5523 28.092C14.2824 29.3368 9.6875 35.0573 9.6875 41.8802H11.7708C11.7708 36.1128 15.6779 31.3229 20.9871 30.2795C21.1276 31.0278 21.2517 31.7847 21.3591 32.5573C17.1462 33.3958 13.9798 37.2587 13.9798 41.8802H16.0632C16.0632 38 18.9451 34.7812 22.6901 34.5451C22.7811 34.533 22.8753 34.5312 22.9679 34.5312C26.789 34.5503 30.0413 37.7951 30.0413 41.8802H32.123C32.123 36.7604 28.2589 32.5989 23.4425 32.3854C23.3333 31.5833 23.1994 30.8021 23.0572 30.026C23.0589 30.026 23.0605 30.026 23.0622 30.026C29.2775 30.026 34.332 35.3437 34.332 41.8802H36.4153C36.4153 34.1371 30.4249 27.8385 23.0622 27.8385Z" fill="#1A3C40"/>
</g>
<path d="M23.2902 12.8698C25.3619 7.79511 20.4115 5.92358 20.4115 5.92358C18.1926 12.0382 23.2902 12.8698 23.2902 12.8698Z" fill="#1A3C40"/>
<path d="M16.9097 2.29688C11.5046 5.55035 14.947 9.58681 14.947 9.58681C19.6114 7.03819 16.9097 2.29688 16.9097 2.29688Z" fill="#1A3C40"/>
<path d="M13.2259 12.625C13.4938 7.11283 8.23251 7.15797 8.23251 7.15797C8.16968 13.7014 13.2259 12.625 13.2259 12.625Z" fill="#1A3C40"/>
<mask id="mask1_128_196" style="mask-type:luminance" maskUnits="userSpaceOnUse" x="0" y="9" width="8" height="5">
<path d="M0 9.40796H7.29993V13.8524H0V9.40796Z" fill="white"/>
</mask>
<g mask="url(#mask1_128_196)">
<path d="M0.0146484 10.5677C3.51333 15.9809 7.08641 12.0712 7.08641 12.0712C4.31359 7.38019 0.0146484 10.5677 0.0146484 10.5677Z" fill="#1A3C40"/>
</g>
<path d="M12.2538 16.0069C8.21612 12.4722 5.09277 16.9201 5.09277 16.9201C10.0382 20.8993 12.2538 16.0069 12.2538 16.0069Z" fill="#1A3C40"/>
<path d="M14.4609 19.4236C9.21947 19.0052 9.13184 24.5295 9.13184 24.5295C15.3587 24.7587 14.4609 19.4236 14.4609 19.4236Z" fill="#1A3C40"/>
<mask id="mask2_128_196" style="mask-type:luminance" maskUnits="userSpaceOnUse" x="24" y="2" width="5" height="8">
<path d="M24.6543 2H28.8871V9.85243H24.6543V2Z" fill="white"/>
</mask>
<g mask="url(#mask2_128_196)">
<path d="M26.7129 9.70137C30.7853 6.21005 27.2221 2.14581 27.2221 2.14581C22.5611 6.48783 26.7129 9.70137 26.7129 9.70137Z" fill="#1A3C40"/>
</g>
<path d="M31.5309 22.0729C31.5656 15.5313 26.5127 16.6302 26.5127 16.6302C26.268 22.1441 31.5309 22.0729 31.5309 22.0729Z" fill="#1A3C40"/>
<mask id="mask3_128_196" style="mask-type:luminance" maskUnits="userSpaceOnUse" x="30" y="2" width="5" height="7">
<path d="M30.1572 2H34.8133V8.96354H30.1572V2Z" fill="white"/>
</mask>
<g mask="url(#mask3_128_196)">
<path d="M34.3142 2C28.3321 3.82812 30.7758 8.60069 30.7758 8.60069C35.88 7.27604 34.3142 2 34.3142 2Z" fill="#1A3C40"/>
</g>
<path d="M30.4019 14.4826C32.1049 19.7066 36.9743 17.6094 36.9743 17.6094C34.7173 11.5121 30.4019 14.4826 30.4019 14.4826Z" fill="#1A3C40"/>
<mask id="mask4_128_196" style="mask-type:luminance" maskUnits="userSpaceOnUse" x="32" y="7" width="8" height="6">
<path d="M32.6968 7.63019H40V12.0746H32.6968V7.63019Z" fill="white"/>
</mask>
<g mask="url(#mask4_128_196)">
<path d="M33.0405 10.8595C37.4221 13.9115 40.066 9.13376 40.066 9.13376C34.737 5.74314 33.0405 10.8595 33.0405 10.8595Z" fill="#1A3C40"/>
</g>
</g>
<path d="M56.376 40.182C55.7133 40.182 55.0903 40.0513 54.507 39.79C53.9237 39.524 53.4103 39.16 52.967 38.698C52.5283 38.2313 52.183 37.69 51.931 37.074C51.6837 36.458 51.56 35.8 51.56 35.1C51.56 34.4 51.6837 33.742 51.931 33.126C52.183 32.51 52.5283 31.971 52.967 31.509C53.4103 31.0423 53.9237 30.6783 54.507 30.417C55.0903 30.151 55.7133 30.018 56.376 30.018C57.1693 30.018 57.8997 30.2023 58.567 30.571C59.2343 30.9397 59.7873 31.4297 60.226 32.041L58.931 32.734C58.6277 32.3513 58.252 32.0457 57.804 31.817C57.356 31.5883 56.88 31.474 56.376 31.474C55.9093 31.474 55.473 31.5697 55.067 31.761C54.661 31.9523 54.304 32.2137 53.996 32.545C53.688 32.8763 53.4477 33.2613 53.275 33.7C53.1023 34.1387 53.016 34.6053 53.016 35.1C53.016 35.5993 53.1023 36.0683 53.275 36.507C53.4477 36.941 53.688 37.326 53.996 37.662C54.3087 37.9933 54.668 38.2547 55.074 38.446C55.48 38.6327 55.914 38.726 56.376 38.726C56.8893 38.726 57.3677 38.6117 57.811 38.383C58.259 38.1497 58.6323 37.8417 58.931 37.459L60.226 38.166C59.7873 38.7773 59.2343 39.2673 58.567 39.636C57.8997 40 57.1693 40.182 56.376 40.182ZM64.2989 40.182C63.6549 40.182 63.0669 40.0163 62.5349 39.685C62.0076 39.3537 61.5852 38.9103 61.2679 38.355C60.9552 37.795 60.7989 37.1767 60.7989 36.5C60.7989 35.9867 60.8899 35.5083 61.0719 35.065C61.2539 34.617 61.5036 34.225 61.8209 33.889C62.1429 33.5483 62.5162 33.2823 62.9409 33.091C63.3656 32.8997 63.8182 32.804 64.2989 32.804C64.9429 32.804 65.5286 32.9697 66.0559 33.301C66.5879 33.6323 67.0102 34.078 67.3229 34.638C67.6402 35.198 67.7989 35.8187 67.7989 36.5C67.7989 37.0087 67.7079 37.4847 67.5259 37.928C67.3439 38.3713 67.0919 38.7633 66.7699 39.104C66.4526 39.44 66.0816 39.7037 65.6569 39.895C65.2369 40.0863 64.7842 40.182 64.2989 40.182ZM64.2989 38.726C64.6862 38.726 65.0339 38.6233 65.3419 38.418C65.6499 38.2127 65.8926 37.942 66.0699 37.606C66.2519 37.2653 66.3429 36.8967 66.3429 36.5C66.3429 36.094 66.2496 35.7207 66.0629 35.38C65.8809 35.0393 65.6359 34.7687 65.3279 34.568C65.0199 34.3627 64.6769 34.26 64.2989 34.26C63.9162 34.26 63.5686 34.3627 63.2559 34.568C62.9479 34.7733 62.7029 35.0463 62.5209 35.387C62.3436 35.7277 62.2549 36.0987 62.2549 36.5C62.2549 36.9153 62.3482 37.291 62.5349 37.627C62.7216 37.963 62.9689 38.2313 63.2769 38.432C63.5896 38.628 63.9302 38.726 64.2989 38.726ZM68.9298 40V33H70.3858V33.742C70.6285 33.4527 70.9248 33.224 71.2748 33.056C71.6295 32.888 72.0122 32.804 72.4228 32.804C72.9222 32.804 73.3818 32.9253 73.8018 33.168C74.2218 33.406 74.5555 33.7233 74.8028 34.12C75.0502 33.7233 75.3792 33.406 75.7898 33.168C76.2052 32.9253 76.6625 32.804 77.1618 32.804C77.6798 32.804 78.1512 32.93 78.5758 33.182C79.0005 33.434 79.3388 33.7723 79.5908 34.197C79.8428 34.6217 79.9688 35.093 79.9688 35.611V40H78.5128V35.982C78.5128 35.674 78.4382 35.3917 78.2888 35.135C78.1395 34.8783 77.9388 34.6707 77.6868 34.512C77.4348 34.3533 77.1548 34.274 76.8468 34.274C76.5388 34.274 76.2588 34.3487 76.0068 34.498C75.7548 34.6473 75.5542 34.8503 75.4048 35.107C75.2555 35.3637 75.1808 35.6553 75.1808 35.982V40H73.7248V35.982C73.7248 35.6553 73.6502 35.3637 73.5008 35.107C73.3515 34.8503 73.1485 34.6473 72.8918 34.498C72.6398 34.3487 72.3598 34.274 72.0518 34.274C71.7485 34.274 71.4685 34.3533 71.2118 34.512C70.9598 34.6707 70.7592 34.8783 70.6098 35.135C70.4605 35.3917 70.3858 35.674 70.3858 35.982V40H68.9298ZM81.3713 40V33H82.8273V33.742C83.0699 33.4527 83.3663 33.224 83.7163 33.056C84.0709 32.888 84.4536 32.804 84.8643 32.804C85.3636 32.804 85.8233 32.9253 86.2433 33.168C86.6633 33.406 86.9969 33.7233 87.2443 34.12C87.4916 33.7233 87.8206 33.406 88.2313 33.168C88.6466 32.9253 89.1039 32.804 89.6033 32.804C90.1213 32.804 90.5926 32.93 91.0173 33.182C91.4419 33.434 91.7803 33.7723 92.0323 34.197C92.2843 34.6217 92.4103 35.093 92.4103 35.611V40H90.9543V35.982C90.9543 35.674 90.8796 35.3917 90.7303 35.135C90.5809 34.8783 90.3803 34.6707 90.1283 34.512C89.8763 34.3533 89.5963 34.274 89.2883 34.274C88.9803 34.274 88.7003 34.3487 88.4483 34.498C88.1963 34.6473 87.9956 34.8503 87.8463 35.107C87.6969 35.3637 87.6223 35.6553 87.6223 35.982V40H86.1663V35.982C86.1663 35.6553 86.0916 35.3637 85.9423 35.107C85.7929 34.8503 85.5899 34.6473 85.3333 34.498C85.0813 34.3487 84.8013 34.274 84.4933 34.274C84.1899 34.274 83.9099 34.3533 83.6533 34.512C83.4013 34.6707 83.2006 34.8783 83.0513 35.135C82.9019 35.3917 82.8273 35.674 82.8273 35.982V40H81.3713ZM93.5327 37.375V33H94.9887V37.018C94.9887 37.3307 95.0657 37.6153 95.2197 37.872C95.3737 38.1287 95.579 38.334 95.8357 38.488C96.0923 38.6373 96.3747 38.712 96.6827 38.712C96.9953 38.712 97.2777 38.6373 97.5297 38.488C97.7863 38.334 97.9893 38.1287 98.1387 37.872C98.2927 37.6153 98.3697 37.3307 98.3697 37.018V33H99.8257L99.8327 40H98.3767L98.3697 39.244C98.1317 39.5333 97.8353 39.762 97.4807 39.93C97.126 40.098 96.7457 40.182 96.3397 40.182C95.8217 40.182 95.3503 40.056 94.9257 39.804C94.501 39.552 94.1627 39.2137 93.9107 38.789C93.6587 38.3643 93.5327 37.893 93.5327 37.375ZM107.536 35.611V40H106.08V35.968C106.08 35.6553 106.003 35.3707 105.849 35.114C105.7 34.8573 105.497 34.6543 105.24 34.505C104.988 34.351 104.704 34.274 104.386 34.274C104.078 34.274 103.796 34.351 103.539 34.505C103.283 34.6543 103.077 34.8573 102.923 35.114C102.769 35.3707 102.692 35.6553 102.692 35.968V40H101.236V33H102.692V33.742C102.935 33.4527 103.234 33.224 103.588 33.056C103.943 32.888 104.326 32.804 104.736 32.804C105.254 32.804 105.726 32.93 106.15 33.182C106.575 33.434 106.911 33.7723 107.158 34.197C107.41 34.6217 107.536 35.093 107.536 35.611ZM108.934 33H110.39V40H108.934V33ZM109.676 31.985C109.452 31.985 109.265 31.9127 109.116 31.768C108.966 31.6233 108.892 31.4413 108.892 31.222C108.892 31.0073 108.966 30.8277 109.116 30.683C109.265 30.5337 109.449 30.459 109.669 30.459C109.883 30.459 110.065 30.5337 110.215 30.683C110.364 30.8277 110.439 31.0073 110.439 31.222C110.439 31.4413 110.364 31.6233 110.215 31.768C110.07 31.9127 109.89 31.985 109.676 31.985ZM115.761 34.456H114.291L114.284 40H112.828L112.835 34.456H111.722V33H112.835L112.828 30.802H114.284L114.291 33H115.761V34.456ZM121.59 33H123.144L119.308 43.5H117.761L119.028 40L116.515 33H118.104L119.756 38.005L121.59 33Z" fill="#1A3C40"/>
<path d="M51.56 20L55.083 1.8H57.267L61.934 14.059L66.575 1.8H68.759L72.295 20H69.539L67.186 7.819L62.831 19.311H61.011L56.669 7.819L54.316 20H51.56ZM84.2717 7H86.9757V20H84.2587L84.1547 18.115C83.7733 18.7823 83.2577 19.3197 82.6077 19.727C81.9577 20.1343 81.1907 20.338 80.3067 20.338C79.3533 20.338 78.4563 20.1603 77.6157 19.805C76.775 19.441 76.034 18.9383 75.3927 18.297C74.76 17.6557 74.266 16.919 73.9107 16.087C73.5553 15.2463 73.3777 14.345 73.3777 13.383C73.3777 12.4557 73.551 11.5847 73.8977 10.77C74.2443 9.94667 74.7253 9.22733 75.3407 8.612C75.956 7.99667 76.6667 7.51567 77.4727 7.169C78.2873 6.81367 79.1583 6.636 80.0857 6.636C81.0303 6.636 81.8623 6.85267 82.5817 7.286C83.3097 7.71067 83.912 8.25667 84.3887 8.924L84.2717 7ZM80.2417 17.725C81.0043 17.725 81.6717 17.5387 82.2437 17.166C82.8157 16.7847 83.2577 16.2733 83.5697 15.632C83.8903 14.9907 84.0507 14.28 84.0507 13.5C84.0507 12.7113 83.8903 11.9963 83.5697 11.355C83.249 10.7137 82.8027 10.2067 82.2307 9.834C81.6673 9.45267 81.0043 9.262 80.2417 9.262C79.4877 9.262 78.7987 9.45267 78.1747 9.834C77.5507 10.2153 77.0567 10.7267 76.6927 11.368C76.3287 12.0093 76.1467 12.72 76.1467 13.5C76.1467 14.2887 76.333 15.0037 76.7057 15.645C77.087 16.2777 77.5853 16.7847 78.2007 17.166C78.8247 17.5387 79.505 17.725 80.2417 17.725ZM101.27 11.849V20H98.5658V12.512C98.5658 11.9313 98.4228 11.4027 98.1368 10.926C97.8594 10.4493 97.4824 10.0723 97.0058 9.795C96.5378 9.509 96.0091 9.366 95.4198 9.366C94.8478 9.366 94.3234 9.509 93.8468 9.795C93.3701 10.0723 92.9888 10.4493 92.7028 10.926C92.4168 11.4027 92.2738 11.9313 92.2738 12.512V20H89.5698V7H92.2738V8.378C92.7244 7.84067 93.2791 7.416 93.9378 7.104C94.5964 6.792 95.3071 6.636 96.0698 6.636C97.0318 6.636 97.9071 6.87 98.6958 7.338C99.4844 7.806 100.108 8.43433 100.568 9.223C101.036 10.0117 101.27 10.887 101.27 11.849ZM113.504 7H116.208V20.338C116.208 21.2307 116.017 22.054 115.636 22.808C115.263 23.562 114.756 24.212 114.115 24.758C113.473 25.3127 112.737 25.7417 111.905 26.045C111.081 26.3483 110.219 26.5 109.318 26.5C108.408 26.5 107.532 26.305 106.692 25.915C105.851 25.5337 105.11 25.0137 104.469 24.355C103.836 23.6963 103.364 22.951 103.052 22.119L105.535 21.001C105.708 21.5383 105.985 22.015 106.367 22.431C106.757 22.847 107.207 23.1763 107.719 23.419C108.239 23.6617 108.772 23.783 109.318 23.783C109.855 23.783 110.371 23.6963 110.865 23.523C111.367 23.3583 111.814 23.1243 112.204 22.821C112.602 22.5177 112.919 22.1537 113.153 21.729C113.387 21.3043 113.504 20.8407 113.504 20.338V18.141C113.079 18.7997 112.533 19.3327 111.866 19.74C111.198 20.1387 110.423 20.338 109.539 20.338C108.62 20.338 107.753 20.1603 106.939 19.805C106.124 19.4497 105.409 18.96 104.794 18.336C104.178 17.7033 103.697 16.9753 103.351 16.152C103.004 15.3287 102.831 14.4447 102.831 13.5C102.831 12.5553 103.004 11.6713 103.351 10.848C103.697 10.016 104.178 9.288 104.794 8.664C105.409 8.03133 106.124 7.53733 106.939 7.182C107.753 6.82667 108.62 6.649 109.539 6.649C110.423 6.649 111.198 6.85267 111.866 7.26C112.533 7.65867 113.079 8.19167 113.504 8.859V7ZM109.565 17.725C110.319 17.725 110.977 17.5343 111.541 17.153C112.104 16.763 112.542 16.2473 112.854 15.606C113.166 14.9647 113.322 14.2627 113.322 13.5C113.322 12.72 113.161 12.0137 112.841 11.381C112.529 10.7397 112.091 10.2283 111.528 9.847C110.964 9.457 110.31 9.262 109.565 9.262C108.837 9.262 108.169 9.45267 107.563 9.834C106.965 10.2153 106.488 10.7267 106.133 11.368C105.777 12.0093 105.6 12.72 105.6 13.5C105.6 14.28 105.777 14.9907 106.133 15.632C106.497 16.2733 106.978 16.7847 107.576 17.166C108.182 17.5387 108.845 17.725 109.565 17.725ZM119.328 20V7H122.032V8.378C122.482 7.84067 123.037 7.416 123.696 7.104C124.354 6.792 125.065 6.636 125.828 6.636C126.313 6.636 126.794 6.701 127.271 6.831L126.192 9.561C125.854 9.431 125.516 9.366 125.178 9.366C124.606 9.366 124.081 9.509 123.605 9.795C123.128 10.0723 122.747 10.4493 122.461 10.926C122.175 11.4027 122.032 11.9313 122.032 12.512V20H119.328ZM133.884 20.338C132.688 20.338 131.596 20.0303 130.608 19.415C129.628 18.7997 128.844 17.9763 128.255 16.945C127.674 15.905 127.384 14.7567 127.384 13.5C127.384 12.5467 127.553 11.6583 127.891 10.835C128.229 10.003 128.692 9.275 129.282 8.651C129.88 8.01833 130.573 7.52433 131.362 7.169C132.15 6.81367 132.991 6.636 133.884 6.636C135.08 6.636 136.167 6.94367 137.147 7.559C138.135 8.17433 138.919 9.002 139.5 10.042C140.089 11.082 140.384 12.2347 140.384 13.5C140.384 14.4447 140.215 15.3287 139.877 16.152C139.539 16.9753 139.071 17.7033 138.473 18.336C137.883 18.96 137.194 19.4497 136.406 19.805C135.626 20.1603 134.785 20.338 133.884 20.338ZM133.884 17.634C134.603 17.634 135.249 17.4433 135.821 17.062C136.393 16.6807 136.843 16.178 137.173 15.554C137.511 14.9213 137.68 14.2367 137.68 13.5C137.68 12.746 137.506 12.0527 137.16 11.42C136.822 10.7873 136.367 10.2847 135.795 9.912C135.223 9.53067 134.586 9.34 133.884 9.34C133.173 9.34 132.527 9.53067 131.947 9.912C131.375 10.2933 130.92 10.8003 130.582 11.433C130.252 12.0657 130.088 12.7547 130.088 13.5C130.088 14.2713 130.261 14.969 130.608 15.593C130.954 16.217 131.414 16.7153 131.986 17.088C132.566 17.452 133.199 17.634 133.884 17.634ZM149.31 20H145.839L141.094 6.974H143.98L147.568 16.88L151.169 6.974H154.042L149.31 20ZM161.255 20.338C160.059 20.338 158.967 20.0303 157.979 19.415C156.999 18.7997 156.215 17.9763 155.626 16.945C155.045 15.905 154.755 14.7567 154.755 13.5C154.755 12.5467 154.924 11.6583 155.262 10.835C155.6 10.003 156.063 9.275 156.653 8.651C157.251 8.01833 157.944 7.52433 158.733 7.169C159.521 6.81367 160.362 6.636 161.255 6.636C162.251 6.636 163.166 6.844 163.998 7.26C164.83 7.66733 165.54 8.235 166.13 8.963C166.719 9.68233 167.152 10.5143 167.43 11.459C167.707 12.395 167.789 13.3917 167.677 14.449H157.654C157.766 15.047 157.983 15.5887 158.304 16.074C158.633 16.5507 159.049 16.9277 159.552 17.205C160.063 17.4823 160.631 17.6253 161.255 17.634C161.913 17.634 162.511 17.4693 163.049 17.14C163.595 16.8107 164.041 16.3557 164.388 15.775L167.131 16.412C166.611 17.5647 165.826 18.5093 164.778 19.246C163.729 19.974 162.555 20.338 161.255 20.338ZM157.563 12.382H164.947C164.86 11.758 164.639 11.1947 164.284 10.692C163.937 10.1807 163.499 9.77767 162.971 9.483C162.451 9.17967 161.879 9.028 161.255 9.028C160.639 9.028 160.067 9.17533 159.539 9.47C159.019 9.76467 158.585 10.1677 158.239 10.679C157.901 11.1817 157.675 11.7493 157.563 12.382Z" fill="#1A3C40"/>
<defs>
<clipPath id="clip0_128_196">
<rect width="40" height="40" fill="white" transform="translate(0 2)"/>
</clipPath>
</defs>
</svg>
