<svg width="178" height="44" viewBox="0 0 178 44" fill="none" xmlns="http://www.w3.org/2000/svg">
<g clip-path="url(#clip0_152_357)">
<mask id="mask0_152_357" style="mask-type:luminance" maskUnits="userSpaceOnUse" x="9" y="9" width="29" height="32">
<path d="M9.9165 9.29688H37.0065V41H9.9165V9.29688Z" fill="white"/>
</mask>
<g mask="url(#mask0_152_357)">
<path d="M23.5622 26.8385C23.42 26.8385 23.2844 26.8559 23.1422 26.8611C22.4825 23.9583 21.664 21.533 20.8026 19.533C22.4015 17.8246 27.8628 12.3212 32.5668 11.5538L32.2477 9.39233C27.3204 10.1962 22.0245 15.1857 19.832 17.4548C17.6991 13.3125 15.629 11.5833 15.4917 11.4722L14.2136 13.1979C14.2599 13.2361 18.6978 17.033 21.0523 27.092C14.7824 28.3368 10.1875 34.0573 10.1875 40.8802H12.2708C12.2708 35.1128 16.1779 30.3229 21.4871 29.2795C21.6276 30.0278 21.7517 30.7847 21.8591 31.5573C17.6462 32.3958 14.4798 36.2587 14.4798 40.8802H16.5632C16.5632 37 19.4451 33.7812 23.1901 33.5451C23.2811 33.533 23.3753 33.5312 23.4679 33.5312C27.289 33.5503 30.5413 36.7951 30.5413 40.8802H32.623C32.623 35.7604 28.7589 31.5989 23.9425 31.3854C23.8333 30.5833 23.6994 29.8021 23.5572 29.026C23.5589 29.026 23.5605 29.026 23.5622 29.026C29.7775 29.026 34.832 34.3437 34.832 40.8802H36.9153C36.9153 33.1371 30.9249 26.8385 23.5622 26.8385Z" fill="white"/>
</g>
<path d="M23.7902 11.8698C25.8619 6.79511 20.9115 4.92358 20.9115 4.92358C18.6926 11.0382 23.7902 11.8698 23.7902 11.8698Z" fill="white"/>
<path d="M17.4097 1.29688C12.0046 4.55035 15.447 8.58681 15.447 8.58681C20.1114 6.03819 17.4097 1.29688 17.4097 1.29688Z" fill="white"/>
<path d="M13.7259 11.625C13.9938 6.11283 8.73251 6.15797 8.73251 6.15797C8.66968 12.7014 13.7259 11.625 13.7259 11.625Z" fill="white"/>
<mask id="mask1_152_357" style="mask-type:luminance" maskUnits="userSpaceOnUse" x="0" y="8" width="8" height="5">
<path d="M0.5 8.40796H7.79993V12.8524H0.5V8.40796Z" fill="white"/>
</mask>
<g mask="url(#mask1_152_357)">
<path d="M0.514648 9.56776C4.01333 14.981 7.58641 11.0712 7.58641 11.0712C4.81359 6.38026 0.514648 9.56776 0.514648 9.56776Z" fill="white"/>
</g>
<path d="M12.7538 15.007C8.71612 11.4723 5.59277 15.9202 5.59277 15.9202C10.5382 19.8994 12.7538 15.007 12.7538 15.007Z" fill="white"/>
<path d="M14.9609 18.4236C9.71947 18.0052 9.63184 23.5295 9.63184 23.5295C15.8587 23.7587 14.9609 18.4236 14.9609 18.4236Z" fill="white"/>
<mask id="mask2_152_357" style="mask-type:luminance" maskUnits="userSpaceOnUse" x="25" y="1" width="5" height="8">
<path d="M25.1543 1H29.3871V8.85243H25.1543V1Z" fill="white"/>
</mask>
<g mask="url(#mask2_152_357)">
<path d="M27.2129 8.70143C31.2853 5.21011 27.7221 1.14587 27.7221 1.14587C23.0611 5.48789 27.2129 8.70143 27.2129 8.70143Z" fill="white"/>
</g>
<path d="M32.0309 21.0729C32.0656 14.5312 27.0127 15.6302 27.0127 15.6302C26.768 21.1441 32.0309 21.0729 32.0309 21.0729Z" fill="white"/>
<mask id="mask3_152_357" style="mask-type:luminance" maskUnits="userSpaceOnUse" x="30" y="1" width="6" height="7">
<path d="M30.6572 1H35.3133V7.96354H30.6572V1Z" fill="white"/>
</mask>
<g mask="url(#mask3_152_357)">
<path d="M34.8142 1C28.8321 2.82812 31.2758 7.60069 31.2758 7.60069C36.38 6.27604 34.8142 1 34.8142 1Z" fill="white"/>
</g>
<path d="M30.9019 13.4826C32.6049 18.7066 37.4743 16.6094 37.4743 16.6094C35.2173 10.5121 30.9019 13.4826 30.9019 13.4826Z" fill="white"/>
<mask id="mask4_152_357" style="mask-type:luminance" maskUnits="userSpaceOnUse" x="33" y="6" width="8" height="6">
<path d="M33.1968 6.63025H40.5V11.0747H33.1968V6.63025Z" fill="white"/>
</mask>
<g mask="url(#mask4_152_357)">
<path d="M33.5405 9.85952C37.9221 12.9116 40.566 8.13382 40.566 8.13382C35.237 4.7432 33.5405 9.85952 33.5405 9.85952Z" fill="white"/>
</g>
</g>
<path d="M56.876 40.182C56.2133 40.182 55.5903 40.0513 55.007 39.79C54.4237 39.524 53.9103 39.16 53.467 38.698C53.0283 38.2313 52.683 37.69 52.431 37.074C52.1837 36.458 52.06 35.8 52.06 35.1C52.06 34.4 52.1837 33.742 52.431 33.126C52.683 32.51 53.0283 31.971 53.467 31.509C53.9103 31.0423 54.4237 30.6783 55.007 30.417C55.5903 30.151 56.2133 30.018 56.876 30.018C57.6693 30.018 58.3997 30.2023 59.067 30.571C59.7343 30.9397 60.2873 31.4297 60.726 32.041L59.431 32.734C59.1277 32.3513 58.752 32.0457 58.304 31.817C57.856 31.5883 57.38 31.474 56.876 31.474C56.4093 31.474 55.973 31.5697 55.567 31.761C55.161 31.9523 54.804 32.2137 54.496 32.545C54.188 32.8763 53.9477 33.2613 53.775 33.7C53.6023 34.1387 53.516 34.6053 53.516 35.1C53.516 35.5993 53.6023 36.0683 53.775 36.507C53.9477 36.941 54.188 37.326 54.496 37.662C54.8087 37.9933 55.168 38.2547 55.574 38.446C55.98 38.6327 56.414 38.726 56.876 38.726C57.3893 38.726 57.8677 38.6117 58.311 38.383C58.759 38.1497 59.1323 37.8417 59.431 37.459L60.726 38.166C60.2873 38.7773 59.7343 39.2673 59.067 39.636C58.3997 40 57.6693 40.182 56.876 40.182ZM64.7989 40.182C64.1549 40.182 63.5669 40.0163 63.0349 39.685C62.5076 39.3537 62.0852 38.9103 61.7679 38.355C61.4552 37.795 61.2989 37.1767 61.2989 36.5C61.2989 35.9867 61.3899 35.5083 61.5719 35.065C61.7539 34.617 62.0036 34.225 62.3209 33.889C62.6429 33.5483 63.0162 33.2823 63.4409 33.091C63.8656 32.8997 64.3182 32.804 64.7989 32.804C65.4429 32.804 66.0286 32.9697 66.5559 33.301C67.0879 33.6323 67.5102 34.078 67.8229 34.638C68.1402 35.198 68.2989 35.8187 68.2989 36.5C68.2989 37.0087 68.2079 37.4847 68.0259 37.928C67.8439 38.3713 67.5919 38.7633 67.2699 39.104C66.9526 39.44 66.5816 39.7037 66.1569 39.895C65.7369 40.0863 65.2842 40.182 64.7989 40.182ZM64.7989 38.726C65.1862 38.726 65.5339 38.6233 65.8419 38.418C66.1499 38.2127 66.3926 37.942 66.5699 37.606C66.7519 37.2653 66.8429 36.8967 66.8429 36.5C66.8429 36.094 66.7496 35.7207 66.5629 35.38C66.3809 35.0393 66.1359 34.7687 65.8279 34.568C65.5199 34.3627 65.1769 34.26 64.7989 34.26C64.4162 34.26 64.0686 34.3627 63.7559 34.568C63.4479 34.7733 63.2029 35.0463 63.0209 35.387C62.8436 35.7277 62.7549 36.0987 62.7549 36.5C62.7549 36.9153 62.8482 37.291 63.0349 37.627C63.2216 37.963 63.4689 38.2313 63.7769 38.432C64.0896 38.628 64.4302 38.726 64.7989 38.726ZM69.4298 40V33H70.8858V33.742C71.1285 33.4527 71.4248 33.224 71.7748 33.056C72.1295 32.888 72.5122 32.804 72.9228 32.804C73.4222 32.804 73.8818 32.9253 74.3018 33.168C74.7218 33.406 75.0555 33.7233 75.3028 34.12C75.5502 33.7233 75.8792 33.406 76.2898 33.168C76.7052 32.9253 77.1625 32.804 77.6618 32.804C78.1798 32.804 78.6512 32.93 79.0758 33.182C79.5005 33.434 79.8388 33.7723 80.0908 34.197C80.3428 34.6217 80.4688 35.093 80.4688 35.611V40H79.0128V35.982C79.0128 35.674 78.9382 35.3917 78.7888 35.135C78.6395 34.8783 78.4388 34.6707 78.1868 34.512C77.9348 34.3533 77.6548 34.274 77.3468 34.274C77.0388 34.274 76.7588 34.3487 76.5068 34.498C76.2548 34.6473 76.0542 34.8503 75.9048 35.107C75.7555 35.3637 75.6808 35.6553 75.6808 35.982V40H74.2248V35.982C74.2248 35.6553 74.1502 35.3637 74.0008 35.107C73.8515 34.8503 73.6485 34.6473 73.3918 34.498C73.1398 34.3487 72.8598 34.274 72.5518 34.274C72.2485 34.274 71.9685 34.3533 71.7118 34.512C71.4598 34.6707 71.2592 34.8783 71.1098 35.135C70.9605 35.3917 70.8858 35.674 70.8858 35.982V40H69.4298ZM81.8713 40V33H83.3273V33.742C83.5699 33.4527 83.8663 33.224 84.2163 33.056C84.5709 32.888 84.9536 32.804 85.3643 32.804C85.8636 32.804 86.3233 32.9253 86.7433 33.168C87.1633 33.406 87.4969 33.7233 87.7443 34.12C87.9916 33.7233 88.3206 33.406 88.7313 33.168C89.1466 32.9253 89.6039 32.804 90.1033 32.804C90.6213 32.804 91.0926 32.93 91.5173 33.182C91.9419 33.434 92.2803 33.7723 92.5323 34.197C92.7843 34.6217 92.9103 35.093 92.9103 35.611V40H91.4543V35.982C91.4543 35.674 91.3796 35.3917 91.2303 35.135C91.0809 34.8783 90.8803 34.6707 90.6283 34.512C90.3763 34.3533 90.0963 34.274 89.7883 34.274C89.4803 34.274 89.2003 34.3487 88.9483 34.498C88.6963 34.6473 88.4956 34.8503 88.3463 35.107C88.1969 35.3637 88.1223 35.6553 88.1223 35.982V40H86.6663V35.982C86.6663 35.6553 86.5916 35.3637 86.4423 35.107C86.2929 34.8503 86.0899 34.6473 85.8333 34.498C85.5813 34.3487 85.3013 34.274 84.9933 34.274C84.6899 34.274 84.4099 34.3533 84.1533 34.512C83.9013 34.6707 83.7006 34.8783 83.5513 35.135C83.4019 35.3917 83.3273 35.674 83.3273 35.982V40H81.8713ZM94.0327 37.375V33H95.4887V37.018C95.4887 37.3307 95.5657 37.6153 95.7197 37.872C95.8737 38.1287 96.079 38.334 96.3357 38.488C96.5923 38.6373 96.8747 38.712 97.1827 38.712C97.4953 38.712 97.7777 38.6373 98.0297 38.488C98.2863 38.334 98.4893 38.1287 98.6387 37.872C98.7927 37.6153 98.8697 37.3307 98.8697 37.018V33H100.326L100.333 40H98.8767L98.8697 39.244C98.6317 39.5333 98.3353 39.762 97.9807 39.93C97.626 40.098 97.2457 40.182 96.8397 40.182C96.3217 40.182 95.8503 40.056 95.4257 39.804C95.001 39.552 94.6627 39.2137 94.4107 38.789C94.1587 38.3643 94.0327 37.893 94.0327 37.375ZM108.036 35.611V40H106.58V35.968C106.58 35.6553 106.503 35.3707 106.349 35.114C106.2 34.8573 105.997 34.6543 105.74 34.505C105.488 34.351 105.204 34.274 104.886 34.274C104.578 34.274 104.296 34.351 104.039 34.505C103.783 34.6543 103.577 34.8573 103.423 35.114C103.269 35.3707 103.192 35.6553 103.192 35.968V40H101.736V33H103.192V33.742C103.435 33.4527 103.734 33.224 104.088 33.056C104.443 32.888 104.826 32.804 105.236 32.804C105.754 32.804 106.226 32.93 106.65 33.182C107.075 33.434 107.411 33.7723 107.658 34.197C107.91 34.6217 108.036 35.093 108.036 35.611ZM109.434 33H110.89V40H109.434V33ZM110.176 31.985C109.952 31.985 109.765 31.9127 109.616 31.768C109.466 31.6233 109.392 31.4413 109.392 31.222C109.392 31.0073 109.466 30.8277 109.616 30.683C109.765 30.5337 109.949 30.459 110.169 30.459C110.383 30.459 110.565 30.5337 110.715 30.683C110.864 30.8277 110.939 31.0073 110.939 31.222C110.939 31.4413 110.864 31.6233 110.715 31.768C110.57 31.9127 110.39 31.985 110.176 31.985ZM116.261 34.456H114.791L114.784 40H113.328L113.335 34.456H112.222V33H113.335L113.328 30.802H114.784L114.791 33H116.261V34.456ZM122.09 33H123.644L119.808 43.5H118.261L119.528 40L117.015 33H118.604L120.256 38.005L122.09 33Z" fill="white"/>
<path d="M52.06 20L55.583 1.8H57.767L62.434 14.059L67.075 1.8H69.259L72.795 20H70.039L67.686 7.819L63.331 19.311H61.511L57.169 7.819L54.816 20H52.06ZM84.7717 7H87.4757V20H84.7587L84.6547 18.115C84.2733 18.7823 83.7577 19.3197 83.1077 19.727C82.4577 20.1343 81.6907 20.338 80.8067 20.338C79.8533 20.338 78.9563 20.1603 78.1157 19.805C77.275 19.441 76.534 18.9383 75.8927 18.297C75.26 17.6557 74.766 16.919 74.4107 16.087C74.0553 15.2463 73.8777 14.345 73.8777 13.383C73.8777 12.4557 74.051 11.5847 74.3977 10.77C74.7443 9.94667 75.2253 9.22733 75.8407 8.612C76.456 7.99667 77.1667 7.51567 77.9727 7.169C78.7873 6.81367 79.6583 6.636 80.5857 6.636C81.5303 6.636 82.3623 6.85267 83.0817 7.286C83.8097 7.71067 84.412 8.25667 84.8887 8.924L84.7717 7ZM80.7417 17.725C81.5043 17.725 82.1717 17.5387 82.7437 17.166C83.3157 16.7847 83.7577 16.2733 84.0697 15.632C84.3903 14.9907 84.5507 14.28 84.5507 13.5C84.5507 12.7113 84.3903 11.9963 84.0697 11.355C83.749 10.7137 83.3027 10.2067 82.7307 9.834C82.1673 9.45267 81.5043 9.262 80.7417 9.262C79.9877 9.262 79.2987 9.45267 78.6747 9.834C78.0507 10.2153 77.5567 10.7267 77.1927 11.368C76.8287 12.0093 76.6467 12.72 76.6467 13.5C76.6467 14.2887 76.833 15.0037 77.2057 15.645C77.587 16.2777 78.0853 16.7847 78.7007 17.166C79.3247 17.5387 80.005 17.725 80.7417 17.725ZM101.77 11.849V20H99.0658V12.512C99.0658 11.9313 98.9228 11.4027 98.6368 10.926C98.3594 10.4493 97.9824 10.0723 97.5058 9.795C97.0378 9.509 96.5091 9.366 95.9198 9.366C95.3478 9.366 94.8234 9.509 94.3468 9.795C93.8701 10.0723 93.4888 10.4493 93.2028 10.926C92.9168 11.4027 92.7738 11.9313 92.7738 12.512V20H90.0698V7H92.7738V8.378C93.2244 7.84067 93.7791 7.416 94.4378 7.104C95.0964 6.792 95.8071 6.636 96.5698 6.636C97.5318 6.636 98.4071 6.87 99.1958 7.338C99.9844 7.806 100.608 8.43433 101.068 9.223C101.536 10.0117 101.77 10.887 101.77 11.849ZM114.004 7H116.708V20.338C116.708 21.2307 116.517 22.054 116.136 22.808C115.763 23.562 115.256 24.212 114.615 24.758C113.973 25.3127 113.237 25.7417 112.405 26.045C111.581 26.3483 110.719 26.5 109.818 26.5C108.908 26.5 108.032 26.305 107.192 25.915C106.351 25.5337 105.61 25.0137 104.969 24.355C104.336 23.6963 103.864 22.951 103.552 22.119L106.035 21.001C106.208 21.5383 106.485 22.015 106.867 22.431C107.257 22.847 107.707 23.1763 108.219 23.419C108.739 23.6617 109.272 23.783 109.818 23.783C110.355 23.783 110.871 23.6963 111.365 23.523C111.867 23.3583 112.314 23.1243 112.704 22.821C113.102 22.5177 113.419 22.1537 113.653 21.729C113.887 21.3043 114.004 20.8407 114.004 20.338V18.141C113.579 18.7997 113.033 19.3327 112.366 19.74C111.698 20.1387 110.923 20.338 110.039 20.338C109.12 20.338 108.253 20.1603 107.439 19.805C106.624 19.4497 105.909 18.96 105.294 18.336C104.678 17.7033 104.197 16.9753 103.851 16.152C103.504 15.3287 103.331 14.4447 103.331 13.5C103.331 12.5553 103.504 11.6713 103.851 10.848C104.197 10.016 104.678 9.288 105.294 8.664C105.909 8.03133 106.624 7.53733 107.439 7.182C108.253 6.82667 109.12 6.649 110.039 6.649C110.923 6.649 111.698 6.85267 112.366 7.26C113.033 7.65867 113.579 8.19167 114.004 8.859V7ZM110.065 17.725C110.819 17.725 111.477 17.5343 112.041 17.153C112.604 16.763 113.042 16.2473 113.354 15.606C113.666 14.9647 113.822 14.2627 113.822 13.5C113.822 12.72 113.661 12.0137 113.341 11.381C113.029 10.7397 112.591 10.2283 112.028 9.847C111.464 9.457 110.81 9.262 110.065 9.262C109.337 9.262 108.669 9.45267 108.063 9.834C107.465 10.2153 106.988 10.7267 106.633 11.368C106.277 12.0093 106.1 12.72 106.1 13.5C106.1 14.28 106.277 14.9907 106.633 15.632C106.997 16.2733 107.478 16.7847 108.076 17.166C108.682 17.5387 109.345 17.725 110.065 17.725ZM119.828 20V7H122.532V8.378C122.982 7.84067 123.537 7.416 124.196 7.104C124.854 6.792 125.565 6.636 126.328 6.636C126.813 6.636 127.294 6.701 127.771 6.831L126.692 9.561C126.354 9.431 126.016 9.366 125.678 9.366C125.106 9.366 124.581 9.509 124.105 9.795C123.628 10.0723 123.247 10.4493 122.961 10.926C122.675 11.4027 122.532 11.9313 122.532 12.512V20H119.828ZM134.384 20.338C133.188 20.338 132.096 20.0303 131.108 19.415C130.128 18.7997 129.344 17.9763 128.755 16.945C128.174 15.905 127.884 14.7567 127.884 13.5C127.884 12.5467 128.053 11.6583 128.391 10.835C128.729 10.003 129.192 9.275 129.782 8.651C130.38 8.01833 131.073 7.52433 131.862 7.169C132.65 6.81367 133.491 6.636 134.384 6.636C135.58 6.636 136.667 6.94367 137.647 7.559C138.635 8.17433 139.419 9.002 140 10.042C140.589 11.082 140.884 12.2347 140.884 13.5C140.884 14.4447 140.715 15.3287 140.377 16.152C140.039 16.9753 139.571 17.7033 138.973 18.336C138.383 18.96 137.694 19.4497 136.906 19.805C136.126 20.1603 135.285 20.338 134.384 20.338ZM134.384 17.634C135.103 17.634 135.749 17.4433 136.321 17.062C136.893 16.6807 137.343 16.178 137.673 15.554C138.011 14.9213 138.18 14.2367 138.18 13.5C138.18 12.746 138.006 12.0527 137.66 11.42C137.322 10.7873 136.867 10.2847 136.295 9.912C135.723 9.53067 135.086 9.34 134.384 9.34C133.673 9.34 133.027 9.53067 132.447 9.912C131.875 10.2933 131.42 10.8003 131.082 11.433C130.752 12.0657 130.588 12.7547 130.588 13.5C130.588 14.2713 130.761 14.969 131.108 15.593C131.454 16.217 131.914 16.7153 132.486 17.088C133.066 17.452 133.699 17.634 134.384 17.634ZM149.81 20H146.339L141.594 6.974H144.48L148.068 16.88L151.669 6.974H154.542L149.81 20ZM161.755 20.338C160.559 20.338 159.467 20.0303 158.479 19.415C157.499 18.7997 156.715 17.9763 156.126 16.945C155.545 15.905 155.255 14.7567 155.255 13.5C155.255 12.5467 155.424 11.6583 155.762 10.835C156.1 10.003 156.563 9.275 157.153 8.651C157.751 8.01833 158.444 7.52433 159.233 7.169C160.021 6.81367 160.862 6.636 161.755 6.636C162.751 6.636 163.666 6.844 164.498 7.26C165.33 7.66733 166.04 8.235 166.63 8.963C167.219 9.68233 167.652 10.5143 167.93 11.459C168.207 12.395 168.289 13.3917 168.177 14.449H158.154C158.266 15.047 158.483 15.5887 158.804 16.074C159.133 16.5507 159.549 16.9277 160.052 17.205C160.563 17.4823 161.131 17.6253 161.755 17.634C162.413 17.634 163.011 17.4693 163.549 17.14C164.095 16.8107 164.541 16.3557 164.888 15.775L167.631 16.412C167.111 17.5647 166.326 18.5093 165.278 19.246C164.229 19.974 163.055 20.338 161.755 20.338ZM158.063 12.382H165.447C165.36 11.758 165.139 11.1947 164.784 10.692C164.437 10.1807 163.999 9.77767 163.471 9.483C162.951 9.17967 162.379 9.028 161.755 9.028C161.139 9.028 160.567 9.17533 160.039 9.47C159.519 9.76467 159.085 10.1677 158.739 10.679C158.401 11.1817 158.175 11.7493 158.063 12.382Z" fill="white"/>
<defs>
<clipPath id="clip0_152_357">
<rect width="40" height="40" fill="white" transform="translate(0.5 1)"/>
</clipPath>
</defs>
</svg>
